<?xml version="1.0" standalone="no"?>
<!DOCTYPE svg PUBLIC "-//W3C//DTD SVG 20010904//EN"
 "http://www.w3.org/TR/2001/REC-SVG-20010904/DTD/svg10.dtd">
<svg version="1.0" xmlns="http://www.w3.org/2000/svg"
 width="1440.000000pt" height="1440.000000pt" viewBox="0 0 1440.000000 1440.000000"
 preserveAspectRatio="xMidYMid meet">
<metadata>
Created by potrace 1.11, written by Peter Selinger 2001-2013
</metadata>
<g transform="translate(0.000000,1440.000000) scale(0.100000,-0.100000)"
fill="#000000" stroke="none">
<path d="M0 7200 l0 -7200 7200 0 7200 0 0 7200 0 7200 -7200 0 -7200 0 0
-7200z m10900 6650 c21 -46 30 -63 64 -113 27 -42 20 -162 -13 -188 -12 -10
-20 -23 -17 -28 3 -5 -2 -12 -11 -15 -14 -6 -15 -9 -4 -15 11 -7 9 -11 -6 -20
-11 -5 -24 -7 -28 -3 -5 4 -5 1 -1 -6 4 -7 11 -10 16 -7 22 14 59 -15 70 -54
12 -45 27 -60 36 -37 4 11 11 13 22 7 14 -7 17 -23 15 -78 -1 -37 -2 -93 -2
-125 0 -52 -2 -56 -21 -51 -11 3 -20 0 -20 -6 0 -6 5 -11 10 -11 6 0 10 -4 10
-9 0 -5 -11 -8 -25 -7 -14 0 -25 5 -25 10 0 6 -5 5 -12 -2 -17 -17 -26 -15
-24 4 0 9 -5 19 -13 22 -8 3 -11 0 -7 -7 12 -19 -3 -12 -34 15 -16 15 -27 31
-24 36 3 5 0 15 -6 23 -21 25 -25 131 -6 159 9 14 17 49 18 78 1 29 7 56 12
60 6 5 2 8 -9 8 -11 0 -34 9 -52 19 -25 16 -33 30 -42 73 -6 29 -10 69 -10 88
1 19 -4 62 -10 95 -20 105 -18 129 8 120 11 -3 22 -2 24 2 3 4 26 8 51 8 44 0
46 -1 66 -45z m414 -890 c38 -31 73 -69 75 -82 1 -7 3 -34 4 -60 1 -26 8 -53
15 -60 6 -6 12 -20 12 -31 0 -12 4 -16 13 -11 6 4 4 -2 -6 -13 -18 -21 -18
-20 -66 26 -26 25 -79 73 -116 106 -78 68 -105 96 -105 106 0 4 -8 10 -17 12
-14 4 -13 5 4 6 12 0 24 4 26 9 9 14 141 8 161 -8z m-5296 -330 c-13 -20 -28
-27 -28 -12 0 10 22 32 32 32 5 0 3 -9 -4 -20z m-125 -5 c-3 -9 2 -24 11 -34
19 -21 17 -28 -36 -105 -16 -21 -28 -45 -28 -51 0 -18 -27 -38 -34 -26 -3 5 0
12 6 14 9 4 8 6 -2 6 -30 2 -60 -30 -71 -74 -11 -45 -50 -97 -57 -77 -6 20 18
81 46 114 18 21 23 33 14 36 -21 7 -13 37 18 72 17 18 30 30 30 25 0 -5 11 2
24 14 21 19 25 20 38 7 13 -13 17 -12 30 4 10 11 13 23 7 31 -12 19 -11 59 1
59 5 0 7 -7 3 -15z m184 7 c8 -5 8 -12 -3 -26 -7 -11 -17 -17 -20 -13 -4 4 -1
13 6 22 17 20 3 19 -18 -1 -15 -15 -14 -18 8 -37 l25 -19 3 21 c2 11 10 21 18
21 8 0 14 4 14 9 0 15 54 -17 62 -36 11 -30 9 -79 -7 -116 -17 -41 -19 -61 -6
-52 5 3 12 18 16 34 3 15 15 38 25 49 11 12 20 26 20 32 0 19 20 10 32 -15 6
-13 19 -27 30 -31 10 -3 16 -10 12 -15 -3 -5 -10 -7 -15 -4 -5 4 -9 3 -9 -2 1
-4 17 -20 37 -35 20 -16 31 -28 24 -28 -19 0 22 -49 41 -50 11 0 15 -5 12 -14
-5 -12 21 -27 53 -30 16 -2 29 -16 15 -16 -6 0 -9 -7 -6 -15 3 -8 11 -13 17
-12 14 2 56 -116 57 -158 0 -38 -32 -131 -54 -156 -9 -11 -16 -24 -16 -29 0
-6 -11 -16 -25 -22 -14 -6 -25 -14 -25 -18 0 -4 -9 -10 -20 -13 -15 -4 -20
-14 -21 -39 -1 -18 0 -37 1 -43 2 -5 4 -32 5 -60 2 -27 4 -50 5 -50 1 0 3 -18
4 -40 2 -22 5 -47 9 -55 3 -8 8 -35 12 -60 4 -29 13 -51 28 -62 20 -16 20 -18
3 -18 -15 0 -17 -5 -12 -32 9 -46 12 -59 21 -91 4 -15 5 -30 2 -33 -7 -7 -67
24 -65 34 2 14 -24 72 -33 72 -5 0 -6 12 -3 26 4 17 3 25 -3 21 -5 -3 -8 6 -5
24 3 19 0 29 -9 29 -9 0 -10 3 -3 10 8 8 7 27 -3 63 -7 29 -11 64 -7 80 3 16
1 27 -5 27 -11 0 -10 22 4 53 4 9 2 23 -4 31 -6 7 -8 16 -4 20 10 10 11 76 1
76 -5 0 -4 9 2 20 11 20 8 24 -21 21 -10 -1 -19 9 -24 26 -11 46 -37 96 -63
125 -15 16 -21 31 -16 39 4 7 8 24 9 38 1 14 5 38 9 54 6 18 4 27 -3 27 -6 0
-11 -8 -11 -17 -1 -17 -1 -17 -11 0 -9 15 -12 15 -25 3 -8 -8 -14 -20 -14 -26
0 -6 -4 -8 -10 -5 -5 3 -10 -1 -10 -9 0 -22 17 -20 25 3 4 13 12 17 25 14 11
-3 17 -9 14 -14 -3 -5 -10 -6 -16 -3 -7 5 -8 2 -2 -7 19 -31 3 -53 -18 -25
-10 14 -46 -34 -53 -70 -7 -39 -33 -94 -45 -94 -12 0 -19 63 -8 77 5 6 9 20 8
30 -1 10 -1 21 0 26 1 4 3 10 4 15 1 4 8 17 15 30 7 13 10 30 7 37 -3 8 -1 17
4 20 6 4 10 17 10 30 0 15 7 26 20 30 11 3 20 13 20 21 0 17 -17 19 -23 2 -2
-7 -2 -2 0 12 3 14 10 28 16 32 6 4 8 10 4 14 -3 4 -25 -10 -48 -30 -43 -39
-73 -42 -109 -11 -8 7 -35 16 -60 20 l-45 6 29 -24 c17 -13 37 -22 47 -20 9 3
19 -3 22 -11 4 -9 11 -16 17 -16 5 0 21 -10 35 -21 19 -18 22 -26 14 -41 -6
-11 -8 -22 -5 -25 3 -4 2 -11 -3 -17 -5 -6 -14 -28 -20 -48 -21 -64 -58 -41
-45 27 3 19 1 35 -5 39 -12 8 -26 -55 -18 -85 5 -19 4 -20 -12 -5 -9 9 -31 19
-49 22 -22 5 -35 16 -47 40 -8 18 -24 35 -34 39 -20 6 -37 35 -21 35 6 0 10
10 10 23 1 21 1 22 15 3 8 -11 15 -15 15 -9 0 7 -7 19 -16 28 -15 15 -15 17 0
34 9 10 16 23 16 29 0 7 4 20 9 30 4 9 19 40 31 67 13 28 25 45 27 38 2 -7 11
-9 19 -6 12 4 13 8 3 14 -10 6 -10 11 0 23 8 9 10 16 7 16 -4 0 1 12 11 28 11
15 27 46 37 69 22 50 36 48 31 -5 -3 -20 -2 -29 1 -19 6 20 24 23 24 5 0 -7
11 -13 25 -13 34 0 31 12 -5 27 l-30 13 25 28 c26 28 41 32 62 19z m-277 -66
c0 -2 -8 -10 -17 -17 -16 -13 -17 -12 -4 4 13 16 21 21 21 13z m6070 -48 c30
-33 33 -69 10 -121 -18 -40 -25 -47 -50 -47 -32 0 -82 -19 -75 -29 2 -4 -1
-13 -7 -21 -8 -12 -9 -12 -4 3 3 9 1 17 -5 17 -7 0 -9 10 -5 24 5 19 1 25 -15
29 -16 4 -20 11 -15 24 6 14 5 16 -5 6 -19 -19 -29 -16 -29 7 0 11 9 25 20 32
11 7 20 18 20 24 0 6 7 25 15 42 15 29 19 31 71 31 42 0 59 -5 74 -21z m-200
-58 c0 -5 -4 -10 -10 -10 -5 0 -10 5 -10 10 0 6 5 10 10 10 6 0 10 -4 10 -10z
m50 -110 c0 -5 -2 -10 -4 -10 -3 0 -8 5 -11 10 -3 6 -1 10 4 10 6 0 11 -4 11
-10z m-6046 -12 c-5 -7 -7 -25 -6 -40 1 -15 1 -28 -2 -28 -2 0 -20 -7 -40 -15
l-37 -16 12 23 c20 37 61 88 71 88 5 0 6 -5 2 -12z m65 -149 c-15 -38 -49 -61
-122 -83 -56 -17 -73 -30 -141 -111 -19 -22 -25 -26 -26 -13 0 9 6 23 13 30
14 15 37 77 37 100 0 23 21 59 53 90 20 20 27 23 27 11 0 -9 -8 -22 -17 -29
-16 -11 -14 -12 17 -11 19 1 38 7 43 12 4 6 10 5 15 -3 12 -18 74 18 93 55 14
26 14 26 17 4 2 -13 -2 -36 -9 -52z m-129 21 c0 -5 -2 -10 -4 -10 -3 0 -8 5
-11 10 -3 6 -1 10 4 10 6 0 11 -4 11 -10z m188 -88 c2 -8 -3 -9 -19 -4 -13 5
-25 14 -27 20 -2 8 3 9 19 4 13 -5 25 -14 27 -20z m-110 -107 c-6 -14 -17 -25
-24 -25 -11 0 -11 5 -2 25 6 14 17 25 24 25 11 0 11 -5 2 -25z m42 7 c0 -5 -6
-17 -14 -28 -19 -25 -31 -12 -14 15 13 21 28 28 28 13z m1153 -7 c4 -8 2 -17
-3 -20 -6 -4 -10 3 -10 14 0 25 6 27 13 6z m-1312 -38 c-15 -15 -24 -2 -16 24
7 20 8 21 17 5 7 -12 7 -21 -1 -29z m409 33 c0 -5 -4 -10 -10 -10 -5 0 -10 5
-10 10 0 6 5 10 10 10 6 0 10 -4 10 -10z m-543 -62 c-3 -8 -6 -5 -6 6 -1 11 2
17 5 13 3 -3 4 -12 1 -19z m413 -49 c0 -4 -12 -9 -26 -12 -29 -5 -43 15 -24
37 10 13 14 12 31 -2 10 -9 19 -19 19 -23z m961 18 c-10 -9 -11 -8 -5 6 3 10
9 15 12 12 3 -3 0 -11 -7 -18z m-1399 -15 c-7 -2 -12 -9 -12 -17 0 -7 -7 -18
-15 -25 -23 -19 -19 6 7 41 14 18 24 25 27 18 2 -7 -1 -15 -7 -17z m1372 10
c6 -11 -42 -67 -51 -59 -3 4 4 16 16 26 13 11 20 25 16 30 -3 6 -2 11 4 11 5
0 12 -4 15 -8z m-1274 -12 c0 -5 -4 -10 -10 -10 -5 0 -10 5 -10 10 0 6 5 10
10 10 6 0 10 -4 10 -10z m282 -72 c-1 -29 2 -38 8 -28 6 8 10 10 10 4 0 -19
-12 -24 -34 -12 -11 7 -24 11 -28 10 -5 -1 -8 4 -8 11 0 13 43 68 49 62 2 -2
3 -23 3 -47z m-297 32 c-3 -5 -15 -10 -26 -10 -11 0 -17 5 -14 10 3 6 15 10
26 10 11 0 17 -4 14 -10z m189 1 c3 -5 -6 -17 -20 -26 -26 -17 -26 -10 -1 23
11 14 14 15 21 3z m56 0 c0 -5 -7 -11 -14 -14 -10 -4 -13 -1 -9 9 6 15 23 19
23 5z m948 -40 c4 -28 -13 -20 -21 9 -3 14 -1 20 6 17 7 -2 14 -14 15 -26z
m-794 -4 c-1 -9 2 -17 6 -17 14 0 21 -32 9 -46 -17 -20 -26 -17 -33 12 -5 19
-11 24 -26 19 -25 -8 -26 11 -3 37 20 22 49 19 47 -5z m826 13 c0 -5 -4 -10
-10 -10 -5 0 -10 5 -10 10 0 6 5 10 10 10 6 0 10 -4 10 -10z m-1083 -42 c-3
-8 -6 -5 -6 6 -1 11 2 17 5 13 3 -3 4 -12 1 -19z m563 11 c0 6 7 11 16 11 13
0 14 -3 5 -14 -12 -14 -12 -37 0 -46 16 -13 19 -48 4 -54 -8 -3 -15 0 -15 6 0
7 -13 9 -35 5 -20 -3 -35 -2 -35 4 0 6 5 7 10 4 6 -3 10 -1 10 4 0 6 -6 11
-14 11 -18 0 -10 38 13 61 11 12 20 13 29 7 8 -7 12 -7 12 1z m390 -9 c0 -5
-2 -10 -4 -10 -3 0 -8 5 -11 10 -3 6 -1 10 4 10 6 0 11 -4 11 -10z m70 1 c0
-5 -7 -11 -15 -15 -9 -3 -15 0 -15 9 0 8 7 15 15 15 8 0 15 -4 15 -9z m-530
-16 c0 -8 -9 -15 -20 -15 -22 0 -27 15 -7 23 21 9 27 7 27 -8z m-650 -2 c-1
-14 -40 -56 -47 -50 -7 8 24 57 37 57 6 0 10 -3 10 -7z m1027 -13 c-4 -27 -17
-38 -17 -13 0 18 8 33 17 33 1 0 2 -9 0 -20z m-1104 -4 c5 -14 -2 -24 -30 -39
-7 -5 -9 0 -6 13 3 11 10 20 15 20 5 0 6 5 3 10 -3 6 -2 10 3 10 6 0 12 -6 15
-14z m214 0 c0 -8 -6 -12 -14 -9 -7 3 -13 9 -13 14 0 5 6 9 13 9 8 0 14 -6 14
-14z m151 0 c-7 -8 -15 -12 -17 -11 -5 6 10 25 20 25 5 0 4 -6 -3 -14z m87 -7
c10 -16 -25 -49 -53 -49 -21 0 -22 2 -12 15 7 8 9 15 6 15 -4 0 -1 7 6 15 15
17 44 19 53 4z m565 -6 c0 -10 -4 -14 -8 -8 -4 6 -11 13 -16 18 -5 4 -2 7 7 7
10 0 17 -8 17 -17z m126 -12 c-12 -19 -24 -12 -19 10 4 13 9 17 15 11 6 -6 7
-15 4 -21z m34 19 c0 -5 -2 -10 -4 -10 -3 0 -8 5 -11 10 -3 6 -1 10 4 10 6 0
11 -4 11 -10z m-1007 -45 c-16 -34 -33 -46 -33 -24 0 13 32 58 42 59 4 0 0
-16 -9 -35z m547 10 c14 -19 14 -19 -2 -6 -10 7 -18 18 -18 24 0 6 1 8 3 6 1
-2 9 -13 17 -24z m-150 5 c0 -5 -5 -10 -11 -10 -5 0 -7 5 -4 10 3 6 8 10 11
10 2 0 4 -4 4 -10z m495 -10 c-3 -5 -11 -10 -16 -10 -6 0 -7 5 -4 10 3 6 11
10 16 10 6 0 7 -4 4 -10z m-45 -16 c0 -17 -22 -14 -28 4 -2 7 3 12 12 12 9 0
16 -7 16 -16z m-1000 -25 c0 -6 -4 -7 -10 -4 -5 3 -10 11 -10 16 0 6 5 7 10 4
6 -3 10 -11 10 -16z m50 -24 c-7 -8 -16 -15 -21 -15 -15 0 -10 22 9 43 15 17
17 17 20 3 2 -9 -2 -23 -8 -31z m318 24 c12 -18 11 -24 -1 -36 -19 -19 -37 -9
-37 21 0 40 18 47 38 15z m842 -4 c-14 -17 -30 -20 -30 -5 0 6 7 10 15 10 8 0
15 5 15 12 0 6 3 8 6 5 4 -4 1 -13 -6 -22z m-1246 0 c-6 -16 -24 -21 -24 -7 0
11 11 22 21 22 5 0 6 -7 3 -15z m761 5 c3 -5 -1 -10 -10 -10 -9 0 -13 5 -10
10 3 6 8 10 10 10 2 0 7 -4 10 -10z m-605 -9 c0 -6 -4 -13 -10 -16 -5 -3 -10
1 -10 9 0 9 5 16 10 16 6 0 10 -4 10 -9z m21 -24 c-13 -13 -26 -3 -16 12 3 6
11 8 17 5 6 -4 6 -10 -1 -17z m634 13 c3 -5 2 -10 -4 -10 -5 0 -13 5 -16 10
-3 6 -2 10 4 10 5 0 13 -4 16 -10z m-95 -10 c-1 -19 -17 -24 -31 -9 -16 16
-15 17 7 15 13 0 24 -3 24 -6z m80 -20 c0 -12 -22 -9 -32 5 -14 19 -8 26 12
15 11 -6 20 -15 20 -20z m-53 13 c-4 -3 -2 -12 4 -19 8 -9 5 -11 -10 -7 -20 5
-19 33 2 33 6 0 7 -3 4 -7z m-746 -34 c-26 -21 -37 -19 -28 5 4 9 13 13 22 10
8 -4 15 -1 15 7 0 7 3 9 8 5 4 -4 -4 -16 -17 -27z m861 6 c3 -14 1 -25 -4 -25
-5 0 -4 -9 2 -19 14 -28 12 -36 -5 -21 -11 9 -15 9 -15 1 0 -7 -9 -6 -25 5
-37 24 -32 61 7 55 4 0 5 6 2 14 -4 10 0 15 14 15 13 0 21 -8 24 -25z m188
-10 c0 -8 7 -15 15 -15 8 0 15 -4 15 -10 0 -5 -6 -10 -14 -10 -8 0 -21 -3 -30
-6 -11 -4 -14 1 -11 23 2 15 4 29 4 31 3 10 21 -1 21 -13z m-860 -32 c12 -11
8 -13 -20 -13 -25 0 -31 3 -23 11 6 6 9 19 6 28 -4 14 -3 14 9 1 8 -8 20 -21
28 -27z m530 17 c0 -5 -9 -6 -20 -3 -11 3 -20 9 -20 13 0 5 9 6 20 3 11 -3 20
-9 20 -13z m410 16 c0 -2 -7 -6 -15 -10 -8 -3 -15 -1 -15 4 0 6 7 10 15 10 8
0 15 -2 15 -4z m-1213 -37 c-6 -10 -13 -15 -15 -9 -6 17 7 42 18 35 6 -4 5
-13 -3 -26z m731 -3 c3 -3 0 -6 -6 -6 -20 0 -14 -18 8 -25 11 -3 20 -13 20
-20 0 -9 6 -12 17 -8 23 9 8 -14 -19 -28 -18 -10 -20 -9 -15 6 5 13 2 16 -16
13 -17 -2 -23 -11 -25 -35 -3 -35 -16 -43 -26 -18 -3 8 -10 15 -15 15 -6 0 -8
-6 -5 -14 3 -8 1 -17 -5 -21 -15 -9 -14 -62 2 -68 6 -2 9 -8 5 -12 -4 -4 -16
2 -28 13 -23 21 -25 79 -3 75 6 -1 15 11 18 28 6 25 9 28 21 18 8 -6 18 -8 22
-4 4 4 1 10 -5 12 -7 3 -13 12 -13 21 0 13 2 14 8 4 7 -10 14 -10 38 3 l29 15
-35 0 c-27 0 -32 3 -20 11 11 8 12 12 3 16 -7 2 -13 8 -13 12 0 9 48 6 58 -3z
m-228 -6 c0 -5 -5 -10 -11 -10 -5 0 -7 5 -4 10 3 6 8 10 11 10 2 0 4 -4 4 -10z
m773 -15 c-3 -9 -8 -14 -10 -11 -3 3 -2 9 2 15 9 16 15 13 8 -4z m-1196 -55
c0 -33 -8 -38 -27 -15 -7 8 -19 15 -27 15 -8 0 -11 5 -8 10 4 6 15 8 25 5 10
-3 21 -1 25 5 10 16 12 12 12 -20z m1143 20 c0 -5 -5 -10 -11 -10 -5 0 -7 5
-4 10 3 6 8 10 11 10 2 0 4 -4 4 -10z m-945 -65 c5 -46 5 -48 -7 -25 -8 14
-12 38 -10 53 6 38 10 31 17 -28z m340 35 c3 -5 2 -10 -4 -10 -5 0 -17 -3 -27
-7 -16 -6 -17 -5 -4 10 17 19 26 21 35 7z m171 -16 c-5 -19 -4 -24 6 -18 10 5
10 4 1 -6 -7 -8 -16 -11 -19 -7 -7 7 3 57 12 57 4 0 3 -12 0 -26z m-647 -4
c18 -16 21 -23 12 -34 -8 -10 -9 -16 -1 -21 11 -7 9 -83 -3 -102 -5 -7 -4 -13
1 -13 5 0 7 -15 5 -32 -3 -18 -5 -39 -6 -45 0 -7 -5 -13 -11 -13 -12 0 -13 82
-1 111 3 10 1 35 -4 57 -6 22 -8 47 -5 56 4 11 1 16 -10 16 -9 0 -16 8 -16 20
0 25 8 25 39 0z m732 -19 c0 10 2 10 6 1 2 -6 9 -9 15 -6 6 4 13 2 17 -4 5 -8
15 -7 34 3 23 12 27 12 27 -1 0 -8 5 -14 10 -14 6 0 10 -9 10 -20 0 -26 -8
-25 -38 3 -19 16 -24 18 -19 5 3 -10 0 -19 -9 -22 -23 -9 -36 -7 -29 4 3 6 -1
10 -9 10 -8 0 -22 10 -31 23 -13 18 -17 20 -25 7 -5 -8 -12 -11 -17 -7 -4 5
-1 12 6 16 8 5 10 14 6 22 -5 8 4 3 18 -10 19 -17 27 -20 28 -10z m-798 -27
c-6 -17 -8 -17 -26 0 -12 13 -16 12 -27 -10 -14 -26 -39 -31 -58 -12 -23 23
-14 39 23 36 19 -1 37 0 40 4 12 11 54 -4 48 -18z m-143 -8 c0 -2 -7 -9 -15
-16 -13 -11 -14 -10 -9 4 5 14 24 23 24 12z m131 -18 c0 -10 2 -10 6 0 11 27
19 9 19 -38 -1 -27 -4 -50 -8 -50 -5 0 -11 0 -14 1 -4 0 -10 -5 -14 -11 -6 -9
-9 -9 -15 0 -4 7 1 13 13 17 22 5 20 36 -4 64 -8 9 -11 19 -7 22 10 11 23 8
24 -5z m59 -30 c0 -5 -4 -8 -10 -8 -5 0 -10 10 -10 23 0 18 2 19 10 7 5 -8 10
-18 10 -22z m166 -16 c-11 -10 -15 4 -8 28 l7 25 3 -23 c2 -13 1 -26 -2 -30z
m461 36 c-2 -7 3 -19 12 -26 14 -11 14 -12 -4 -10 -21 3 -35 48 -15 48 6 0 10
-6 7 -12z m-764 -11 c4 3 7 1 7 -5 0 -17 -16 -15 -31 6 -12 15 -12 16 2 5 9
-7 19 -10 22 -6z m566 -34 c5 -27 6 -52 1 -57 -10 -10 -24 30 -15 44 4 6 -1
22 -9 35 -14 21 -14 25 -2 25 9 0 18 -18 25 -47z m289 -3 c11 -18 10 -20 -17
-20 -31 0 -47 13 -36 30 10 17 39 11 53 -10z m-806 -12 c-7 -7 -12 -8 -12 -2
0 14 12 26 19 19 2 -3 -1 -11 -7 -17z m1028 12 c0 -5 -4 -10 -10 -10 -5 0 -10
5 -10 10 0 6 5 10 10 10 6 0 10 -4 10 -10z m-407 -20 c3 -11 1 -20 -4 -20 -5
0 -9 9 -9 20 0 11 2 20 4 20 2 0 6 -9 9 -20z m-353 -4 c0 -2 -7 -7 -16 -10 -8
-3 -12 -2 -9 4 6 10 25 14 25 6z m160 -17 c0 -6 -4 -7 -10 -4 -5 3 -10 11 -10
16 0 6 5 7 10 4 6 -3 10 -11 10 -16z m437 15 c-3 -3 -12 -4 -19 -1 -8 3 -5 6
6 6 11 1 17 -2 13 -5z m48 -4 c3 -5 2 -10 -4 -10 -5 0 -13 5 -16 10 -3 6 -2
10 4 10 5 0 13 -4 16 -10z m-962 -52 c-8 -46 -22 -58 -19 -17 4 47 5 49 16 49
5 0 7 -14 3 -32z m697 17 c7 -9 10 -18 7 -21 -6 -7 -47 18 -47 28 0 14 27 9
40 -7z m-760 -33 c0 -13 -3 -12 -15 4 -19 25 -19 40 0 24 8 -7 15 -20 15 -28z
m543 17 c-8 -8 -16 -8 -30 0 -16 9 -14 10 12 11 21 0 26 -3 18 -11z m277 -5
c0 -2 -9 -4 -20 -4 -11 0 -20 4 -20 9 0 5 9 7 20 4 11 -3 20 -7 20 -9z m-703
-16 c-3 -8 -6 -5 -6 6 -1 11 2 17 5 13 3 -3 4 -12 1 -19z m320 -28 c-6 -16
-13 -27 -15 -25 -7 7 8 55 17 55 5 0 4 -13 -2 -30z m197 14 c6 -15 4 -15 -11
-3 -10 7 -20 15 -22 16 -2 2 3 3 11 3 9 0 19 -7 22 -16z m-654 -4 c0 -5 -4
-10 -10 -10 -5 0 -10 5 -10 10 0 6 5 10 10 10 6 0 10 -4 10 -10z m44 -11 c-3
-5 -10 -7 -15 -3 -5 3 -7 10 -3 15 3 5 10 7 15 3 5 -3 7 -10 3 -15z m126 17
c0 -3 -4 -8 -10 -11 -5 -3 -10 -1 -10 4 0 6 5 11 10 11 6 0 10 -2 10 -4z m537
-2 c-3 -3 -12 -4 -19 -1 -8 3 -5 6 6 6 11 1 17 -2 13 -5z m-697 -34 c13 -8 13
-10 -2 -10 -9 0 -20 5 -23 10 -8 13 5 13 25 0z m66 -22 c-19 -13 -24 -9 -19
11 4 16 8 17 18 8 9 -9 10 -14 1 -19z m-116 -13 c0 -18 -52 -105 -63 -105 -5
0 -7 3 -5 8 8 15 35 78 41 95 8 21 27 23 27 2z m80 -9 c0 -3 -4 -8 -10 -11 -5
-3 -10 -1 -10 4 0 6 5 11 10 11 6 0 10 -2 10 -4z m20 -30 c-25 -26 -36 -31
-46 -22 -6 6 -9 15 -6 21 3 5 7 4 10 -3 5 -17 22 -15 22 3 0 7 8 19 18 24 34
20 34 11 2 -23z m143 3 c-4 -13 -9 -17 -15 -11 -11 11 -3 32 12 32 4 0 6 -9 3
-21z m-237 -29 c0 -12 -4 -16 -9 -11 -5 5 -6 14 -3 20 10 15 12 14 12 -9z m86
-22 c-7 -7 -12 -8 -12 -2 0 14 12 26 19 19 2 -3 -1 -11 -7 -17z m-34 0 c16
-16 15 -28 -2 -28 -7 0 -16 9 -19 20 -6 23 3 26 21 8z m-64 -33 c-4 -8 -10
-15 -15 -15 -4 0 -6 7 -3 15 4 8 10 15 15 15 4 0 6 -7 3 -15z m206 -5 c0 -5
-5 -10 -11 -10 -5 0 -7 5 -4 10 3 6 8 10 11 10 2 0 4 -4 4 -10z m-40 -40 c0
-13 -70 -90 -82 -90 -5 0 -22 -14 -38 -30 -17 -17 -35 -28 -40 -25 -15 9 -12
25 5 25 8 0 15 7 15 15 0 8 8 15 17 15 10 0 26 9 38 20 11 11 34 33 50 49 34
34 35 35 35 21z m-316 -35 c3 -8 3 -21 0 -28 -3 -8 3 -13 15 -13 11 0 18 4 15
7 -2 4 0 10 4 13 5 3 14 -6 20 -19 11 -23 9 -25 -13 -25 -44 0 -75 18 -75 43
0 36 22 51 34 22z m76 -20 c-7 -9 -15 -13 -17 -11 -7 7 7 26 19 26 6 0 6 -6
-2 -15z m57 -15 c-3 -10 0 -21 7 -24 8 -3 7 -5 -1 -5 -18 -1 -36 36 -20 42 19
8 20 8 14 -13z m48 -10 c-3 -5 -10 -10 -16 -10 -5 0 -9 5 -9 10 0 6 7 10 16
10 8 0 12 -4 9 -10z m-232 -37 c-5 -12 -2 -15 10 -10 9 3 17 2 17 -4 0 -6 5
-7 10 -4 6 3 10 1 10 -4 0 -6 5 -11 10 -11 6 0 10 8 10 18 0 10 7 19 14 19 12
0 13 -5 4 -20 -7 -15 -7 -22 3 -29 10 -6 0 -8 -28 -6 -24 2 -43 0 -43 -5 0
-20 -38 15 -43 40 -7 37 1 57 19 43 7 -7 10 -19 7 -27z m187 -3 c0 -5 -2 -10
-4 -10 -3 0 -8 5 -11 10 -3 6 -1 10 4 10 6 0 11 -4 11 -10z m-60 -10 c0 -5 -4
-10 -10 -10 -5 0 -10 5 -10 10 0 6 5 10 10 10 6 0 10 -4 10 -10z m57 -23 c4
-6 -3 -8 -21 -3 -16 4 -26 2 -26 -4 0 -6 -4 -8 -10 -5 -15 10 12 33 32 27 10
-2 21 -9 25 -15z m3476 -284 c-7 -2 -13 -11 -13 -19 0 -8 -4 -14 -10 -14 -5 0
-10 4 -10 8 0 12 22 32 35 31 5 0 4 -3 -2 -6z m113 -33 c24 0 15 -25 -10 -26
-18 -1 -23 3 -21 20 3 29 6 33 12 19 2 -7 11 -13 19 -13z m-106 -10 c0 -5 8
-10 17 -10 9 0 14 -3 10 -6 -3 -4 -14 -3 -24 1 -10 5 -25 7 -33 6 -13 -2 -13
-1 0 8 19 14 30 14 30 1z m60 -30 c0 -5 7 -10 15 -10 8 0 15 -7 15 -15 0 -8 7
-15 15 -15 8 0 15 -4 15 -10 0 -15 -22 -7 -41 15 -10 11 -21 17 -25 13 -4 -5
1 -18 12 -29 19 -22 19 -22 -3 -10 -15 8 -21 20 -21 41 1 16 5 30 10 30 4 0 8
-4 8 -10z m84 -21 c-3 -5 -10 -7 -15 -3 -5 3 -7 10 -3 15 3 5 10 7 15 3 5 -3
7 -10 3 -15z m66 1 c0 -5 -2 -10 -4 -10 -3 0 -8 5 -11 10 -3 6 -1 10 4 10 6 0
11 -4 11 -10z m-32 -67 c16 -16 16 -16 -1 -10 -10 4 -23 7 -28 7 -5 0 -9 5 -9
10 0 15 20 12 38 -7z m72 -23 c0 -24 -22 -26 -40 -5 -8 9 -8 15 -2 15 6 0 12
-6 15 -12 3 -9 7 -7 12 5 9 23 15 22 15 -3z m-490 -16 c0 -8 -5 -12 -10 -9 -6
4 -8 11 -5 16 9 14 15 11 15 -7z m131 -21 c22 -11 35 -27 37 -42 4 -23 2 -23
-24 8 -19 23 -29 29 -35 20 -5 -9 -11 -8 -24 4 -9 10 -25 17 -35 17 -10 0 -22
5 -25 10 -10 17 67 4 106 -17z m-161 -17 c0 -3 -4 -8 -10 -11 -5 -3 -10 -1
-10 4 0 6 5 11 10 11 6 0 10 -2 10 -4z m510 -6 c0 -5 -4 -10 -10 -10 -5 0 -10
5 -10 10 0 6 5 10 10 10 6 0 10 -4 10 -10z m-340 -30 c0 -5 -4 -10 -10 -10 -5
0 -10 5 -10 10 0 6 5 10 10 10 6 0 10 -4 10 -10z m70 0 c0 -5 -7 -10 -16 -10
-8 0 -12 5 -9 10 3 6 10 10 16 10 5 0 9 -4 9 -10z m-280 -10 c0 -5 -4 -10 -10
-10 -5 0 -10 5 -10 10 0 6 5 10 10 10 6 0 10 -4 10 -10z m40 6 c0 -3 -4 -8
-10 -11 -5 -3 -10 -1 -10 4 0 6 5 11 10 11 6 0 10 -2 10 -4z m-563 -38 c-3 -8
-6 -5 -6 6 -1 11 2 17 5 13 3 -3 4 -12 1 -19z m798 2 c3 -5 1 -10 -4 -10 -6 0
-11 5 -11 10 0 6 2 10 4 10 3 0 8 -4 11 -10z m35 0 c0 -5 -2 -10 -4 -10 -3 0
-8 5 -11 10 -3 6 -1 10 4 10 6 0 11 -4 11 -10z m-115 -30 c3 -5 1 -10 -4 -10
-6 0 -11 5 -11 10 0 6 2 10 4 10 3 0 8 -4 11 -10z m109 -5 c3 -8 1 -15 -3 -15
-5 0 -11 7 -15 15 -3 8 -1 15 3 15 5 0 11 -7 15 -15z m-254 -5 c0 -5 -2 -10
-4 -10 -3 0 -8 5 -11 10 -3 6 -1 10 4 10 6 0 11 -4 11 -10z m-159 -27 c-12
-20 -14 -14 -5 12 4 9 9 14 11 11 3 -2 0 -13 -6 -23z m66 3 c-26 -27 -28 -27
-21 0 3 11 14 20 24 21 18 2 18 0 -3 -21z m96 -8 c4 -10 8 -10 15 1 7 9 12 10
16 2 4 -6 12 -11 17 -11 6 0 7 5 4 10 -3 6 -2 10 4 10 5 0 13 -5 17 -11 4 -8
9 -7 15 2 7 11 9 10 9 -3 0 -11 8 -18 20 -18 11 0 20 -5 20 -11 0 -6 6 -9 14
-6 17 7 40 -18 31 -33 -4 -6 -1 -9 7 -8 7 2 13 -4 13 -12 0 -10 -8 -14 -23
-13 -13 2 -21 -1 -18 -6 3 -5 -5 -12 -19 -15 -14 -4 -25 -11 -25 -16 0 -13 13
-13 27 1 7 7 12 6 16 -3 3 -8 -7 -21 -24 -30 -29 -17 -29 -17 -29 8 0 22 -2
23 -14 12 -7 -8 -12 -26 -11 -41 2 -15 -1 -27 -6 -27 -5 0 -9 10 -9 23 0 19
-5 22 -43 23 -23 0 -45 -4 -49 -10 -7 -10 -13 14 -9 36 0 4 -9 7 -22 5 -16 -1
-21 3 -19 15 2 12 -2 16 -13 12 -10 -4 -15 0 -15 10 0 9 -5 24 -11 34 -17 27
33 76 67 68 14 -4 24 -2 24 4 0 14 17 12 23 -2z m177 2 c0 -5 -4 -10 -10 -10
-5 0 -10 5 -10 10 0 6 5 10 10 10 6 0 10 -4 10 -10z m71 -3 c-1 -12 -15 -9
-19 4 -3 6 1 10 8 8 6 -3 11 -8 11 -12z m-405 -37 c8 0 14 -4 14 -10 0 -5 -4
-10 -8 -10 -12 0 -32 22 -31 35 0 5 3 4 6 -2 2 -7 11 -13 19 -13z m364 -6 c0
-8 -5 -12 -10 -9 -6 4 -8 11 -5 16 9 14 15 11 15 -7z m70 7 c0 -5 -11 -8 -25
-8 -14 0 -25 3 -25 8 0 5 11 9 25 9 14 0 25 -4 25 -9z m392 -33 c-8 -8 -9 -4
-5 13 4 13 8 18 11 10 2 -7 -1 -18 -6 -23z m-818 -25 c7 -19 16 -28 25 -25 10
3 12 0 8 -12 -7 -17 32 -66 52 -66 13 0 15 -17 2 -24 -13 -9 -97 78 -103 106
-3 13 -9 31 -13 42 -6 14 -4 17 5 14 8 -2 18 -18 24 -35z m392 0 c-3 -21 -5
-41 -6 -45 0 -5 -7 -8 -16 -8 -14 0 -14 3 -4 15 7 8 9 15 5 15 -4 0 -2 6 4 14
6 8 11 18 10 22 -2 14 1 24 7 24 3 0 3 -17 0 -37z m-366 7 c0 -5 -5 -10 -11
-10 -5 0 -7 5 -4 10 3 6 8 10 11 10 2 0 4 -4 4 -10z m68 -161 c34 -18 62 -33
62 -35 0 -7 -64 17 -95 36 -37 23 -95 85 -95 101 0 6 15 -7 33 -30 19 -24 57
-53 95 -72z m256 76 c-7 -16 -24 -21 -24 -6 0 8 7 13 27 20 1 1 0 -6 -3 -14z
m-60 -49 c-11 -5 -23 -11 -29 -12 -5 -1 -18 -5 -27 -9 -11 -4 -18 -3 -18 4 0
6 6 11 14 11 8 0 16 6 19 14 4 9 14 12 26 9 16 -4 21 0 22 13 1 18 2 18 6 0 3
-12 -2 -23 -13 -30z m-152 -3 c28 -25 22 -33 -12 -16 -17 8 -28 19 -25 24 9
13 16 11 37 -8z m54 -30 c-10 -10 -19 5 -10 18 6 11 8 11 12 0 2 -7 1 -15 -2
-18z m17 -30 c-7 -2 -19 -2 -25 0 -7 3 -2 5 12 5 14 0 19 -2 13 -5z m-729 -78
c3 -8 1 -15 -4 -15 -6 0 -10 7 -10 15 0 8 2 15 4 15 2 0 6 -7 10 -15z m-19
-65 c4 -22 10 -38 15 -35 4 3 13 -2 20 -10 11 -13 10 -14 -4 -9 -9 3 -16 2
-16 -4 0 -14 27 -23 48 -15 13 5 12 1 -5 -16 -24 -23 -30 -41 -13 -41 6 0 10
6 10 14 0 9 11 13 32 12 33 -2 53 -26 21 -26 -10 0 -24 -4 -31 -8 -7 -5 14 -8
48 -7 47 1 60 -2 56 -12 -3 -8 2 -13 15 -13 11 0 18 -4 15 -8 -2 -4 4 -8 15
-8 10 0 19 4 19 8 0 4 9 -1 20 -12 12 -12 33 -20 53 -20 43 0 118 -27 134 -48
8 -11 12 -12 13 -4 0 6 9 12 20 12 22 0 27 -15 8 -24 -7 -3 0 -2 16 1 19 4 27
2 23 -4 -8 -13 20 -27 46 -24 19 3 23 -17 5 -24 -7 -3 -60 9 -118 25 -58 17
-116 33 -130 35 -78 13 -91 18 -86 31 3 8 0 11 -10 7 -7 -3 -22 -2 -31 1 -15
6 -15 8 -3 16 13 8 12 10 -2 10 -10 0 -18 -4 -18 -10 0 -5 -11 -10 -24 -10
-14 0 -28 5 -31 10 -3 6 -14 10 -25 10 -14 0 -17 6 -13 23 4 18 3 19 -6 7 -8
-12 -11 -12 -11 -1 0 7 -6 11 -15 8 -8 -4 -17 -2 -21 4 -4 7 -10 7 -18 0 -15
-13 -41 3 -31 19 5 9 2 10 -14 5 -26 -8 -49 4 -30 16 11 7 10 9 -3 9 -10 0
-18 5 -18 11 0 6 9 9 20 6 11 -3 18 -1 14 4 -3 5 -12 9 -20 9 -8 0 -14 4 -14
9 0 17 20 23 35 11 11 -9 15 -9 15 -1 0 16 18 13 23 -4 3 -11 4 -10 3 2 -1 12
-9 17 -23 16 -16 -2 -20 2 -16 17 3 10 11 16 18 14 9 -4 11 3 7 23 -4 19 -7
22 -10 11 -4 -21 -22 -24 -22 -5 0 16 21 38 31 32 4 -3 10 -23 14 -45z m32 34
c-3 -3 -12 -4 -19 -1 -8 3 -5 6 6 6 11 1 17 -2 13 -5z m26 -51 c-3 -7 -9 -13
-13 -13 -4 0 -10 6 -13 13 -3 7 3 13 13 13 10 0 16 -6 13 -13z m37 -35 c0 -4
-4 -8 -9 -8 -6 0 -12 4 -15 8 -3 5 1 9 9 9 8 0 15 -4 15 -9z m140 -98 c0 -5
-4 -10 -9 -10 -6 0 -13 5 -16 10 -3 6 1 10 9 10 9 0 16 -4 16 -10z m-175 -37
c20 -15 19 -15 -5 -9 -14 3 -29 6 -33 6 -5 0 -5 5 -2 10 8 14 16 12 40 -7z
m2975 -13 c0 -5 -2 -10 -4 -10 -3 0 -8 5 -11 10 -3 6 -1 10 4 10 6 0 11 -4 11
-10z m-2423 -86 c-3 -3 -12 -4 -19 -1 -8 3 -5 6 6 6 11 1 17 -2 13 -5z m61
-44 c8 -4 -3 -6 -25 -4 -47 2 -46 2 -38 14 6 10 35 6 63 -10z m107 -21 c16
-15 -39 -10 -61 6 -18 14 -17 15 16 9 19 -3 39 -9 45 -15z m62 -5 c-3 -3 -12
-4 -19 -1 -8 3 -5 6 6 6 11 1 17 -2 13 -5z m190 -14 c2 -22 -8 -24 -69 -14
-21 4 -38 11 -38 16 0 6 11 8 25 6 13 -3 22 -1 19 3 -3 5 10 9 28 9 27 0 34
-4 35 -20z m-140 4 c-3 -3 -12 -4 -19 -1 -8 3 -5 6 6 6 11 1 17 -2 13 -5z
m753 -535 c0 -6 -4 -7 -10 -4 -5 3 -10 11 -10 16 0 6 5 7 10 4 6 -3 10 -11 10
-16z m-1240 1 c0 -5 -5 -10 -11 -10 -5 0 -7 5 -4 10 3 6 8 10 11 10 2 0 4 -4
4 -10z m67 -6 c-3 -3 -12 -4 -19 -1 -8 3 -5 6 6 6 11 1 17 -2 13 -5z m413 -26
c0 -6 -7 -5 -15 2 -8 7 -15 17 -15 22 0 6 7 5 15 -2 8 -7 15 -17 15 -22z
m-650 2 c0 -5 -5 -10 -11 -10 -5 0 -7 5 -4 10 3 6 8 10 11 10 2 0 4 -4 4 -10z
m67 4 c-3 -3 -12 -4 -19 -1 -8 3 -5 6 6 6 11 1 17 -2 13 -5z m58 -4 c3 -5 1
-10 -4 -10 -6 0 -11 5 -11 10 0 6 2 10 4 10 3 0 8 -4 11 -10z m43 -15 c-3 -3
-9 2 -12 12 -6 14 -5 15 5 6 7 -7 10 -15 7 -18z m1272 -6 c0 -5 -4 -9 -10 -9
-5 0 -10 7 -10 16 0 8 5 12 10 9 6 -3 10 -10 10 -16z m-1520 1 c0 -5 -4 -10
-10 -10 -5 0 -10 5 -10 10 0 6 5 10 10 10 6 0 10 -4 10 -10z m180 0 c0 -5 -4
-10 -10 -10 -5 0 -10 5 -10 10 0 6 5 10 10 10 6 0 10 -4 10 -10z m160 -5 c0
-8 -7 -15 -15 -15 -13 0 -14 3 -3 15 16 18 18 18 18 0z m-295 -5 c3 -5 -1 -10
-10 -10 -9 0 -13 5 -10 10 3 6 8 10 10 10 2 0 7 -4 10 -10z m32 -22 c-3 -8 -6
-5 -6 6 -1 11 2 17 5 13 3 -3 4 -12 1 -19z m523 12 c0 -5 -4 -10 -10 -10 -5 0
-10 5 -10 10 0 6 5 10 10 10 6 0 10 -4 10 -10z m-670 -15 c11 -13 10 -14 -4
-9 -9 3 -16 10 -16 15 0 13 6 11 20 -6z m518 -3 c2 -7 -2 -10 -12 -6 -9 3 -16
11 -16 16 0 13 23 5 28 -10z m-584 -9 c-5 -5 -12 -12 -16 -18 -4 -6 -8 -2 -8
8 0 9 7 17 17 17 9 0 12 -3 7 -7z m-119 -13 c3 -5 2 -10 -4 -10 -5 0 -13 5
-16 10 -3 6 -2 10 4 10 5 0 13 -4 16 -10z m75 0 c-8 -5 -22 -9 -30 -9 -10 0
-8 3 5 9 27 12 43 12 25 0z m680 0 c0 -5 -5 -10 -11 -10 -5 0 -7 5 -4 10 3 6
8 10 11 10 2 0 4 -4 4 -10z m-490 -10 c0 -5 -8 -10 -17 -10 -15 0 -16 2 -3 10
19 12 20 12 20 0z m403 -15 c-3 -9 -8 -14 -10 -11 -3 3 -2 9 2 15 9 16 15 13
8 -4z m-806 -17 c-3 -8 -6 -5 -6 6 -1 11 2 17 5 13 3 -3 4 -12 1 -19z m237 6
c10 -25 -1 -29 -14 -5 -6 12 -7 21 -1 21 5 0 12 -7 15 -16z m-51 -15 c-6 -6
-17 -8 -24 -3 -9 5 -8 9 7 14 23 9 31 3 17 -11z m397 11 c0 -5 -2 -10 -4 -10
-3 0 -8 5 -11 10 -3 6 -1 10 4 10 6 0 11 -4 11 -10z m-3220 -16 c14 -8 17 -13
7 -10 -10 3 -25 6 -33 6 -8 0 -14 5 -14 10 0 14 10 12 40 -6z m135 -25 c5 -5
-2 -9 -17 -9 -32 0 -58 9 -58 21 0 10 61 0 75 -12z m2815 17 c0 -11 -19 -15
-25 -6 -3 5 1 10 9 10 9 0 16 -2 16 -4z m67 -2 c-3 -3 -12 -4 -19 -1 -8 3 -5
6 6 6 11 1 17 -2 13 -5z m-654 -11 c-7 -2 -19 -2 -25 0 -7 3 -2 5 12 5 14 0
19 -2 13 -5z m967 -14 c0 -5 -4 -9 -10 -9 -5 0 -10 7 -10 16 0 8 5 12 10 9 6
-3 10 -10 10 -16z m2630 -5 c0 -8 -4 -12 -10 -9 -5 3 -10 13 -10 21 0 8 5 12
10 9 6 -3 10 -13 10 -21z m-5695 0 c44 -4 93 -10 108 -15 15 -4 91 -13 167
-20 77 -7 140 -16 140 -21 0 -4 -21 -8 -46 -8 -56 0 -286 27 -334 40 -19 5
-42 8 -50 7 -28 -3 -100 15 -100 25 0 5 8 7 18 4 9 -2 53 -8 97 -12z m2415 -3
c0 -3 -12 -6 -27 -7 -16 0 -37 -4 -48 -8 -17 -7 -16 -5 4 11 21 18 71 21 71 4z
m620 -1 c0 -5 -2 -10 -4 -10 -3 0 -8 5 -11 10 -3 6 -1 10 4 10 6 0 11 -4 11
-10z m2620 0 c0 -5 -7 -10 -16 -10 -8 0 -12 5 -9 10 3 6 10 10 16 10 5 0 9 -4
9 -10z m-3540 -15 c0 -8 5 -15 11 -15 5 0 7 -4 4 -10 -10 -16 -38 -12 -31 5 4
11 -2 15 -22 16 l-27 1 25 8 c37 12 40 11 40 -5z m-1190 -35 c0 -5 -4 -10 -10
-10 -5 0 -10 5 -10 10 0 6 5 10 10 10 6 0 10 -4 10 -10z m1575 0 c3 -5 1 -10
-4 -10 -6 0 -11 5 -11 10 0 6 2 10 4 10 3 0 8 -4 11 -10z m-2022 -11 c-8 -8
-16 -8 -30 0 -16 9 -14 10 12 11 21 0 26 -3 18 -11z m57 3 c0 -4 -9 -8 -20 -9
-11 -1 -20 2 -20 8 0 5 9 9 20 9 11 0 20 -4 20 -8z m110 -4 c0 -9 -23 -9 -65
2 -26 7 -24 8 18 7 26 0 47 -4 47 -9z m1827 -1 c12 -13 -26 -13 -42 0 -19 13
-18 14 9 9 16 -3 30 -7 33 -9z m93 -2 c-7 -8 -17 -12 -23 -8 -6 4 -3 9 9 14
27 11 28 11 14 -6z m3111 -28 c-1 -12 -15 -9 -19 4 -3 6 1 10 8 8 6 -3 11 -8
11 -12z m-3291 -7 c0 -5 -5 -10 -11 -10 -5 0 -7 5 -4 10 3 6 8 10 11 10 2 0 4
-4 4 -10z m75 0 c-3 -5 -13 -10 -21 -10 -8 0 -12 5 -9 10 3 6 13 10 21 10 8 0
12 -4 9 -10z m182 -12 c24 -23 30 -38 13 -38 -5 0 -10 6 -10 14 0 8 -7 16 -15
20 -8 3 -15 0 -15 -7 0 -8 -4 -6 -10 3 -23 36 2 41 37 8z m-92 -2 c12 -12 12
-15 -1 -20 -8 -3 -12 -2 -9 3 3 6 -3 14 -12 20 -11 6 -13 11 -5 11 7 0 20 -6
27 -14z m3505 5 c0 -6 -4 -13 -10 -16 -5 -3 -10 1 -10 9 0 9 5 16 10 16 6 0
10 -4 10 -9z m-389 -23 c1 -17 2 -19 6 -5 5 18 28 23 37 8 3 -5 15 -7 26 -4
15 4 20 0 20 -13 0 -16 2 -17 10 -4 9 13 14 11 32 -10 l21 -25 -8 25 c-7 22
-6 23 9 11 9 -7 16 -20 16 -27 0 -8 6 -11 15 -8 8 4 15 2 15 -4 0 -5 15 -13
33 -17 17 -4 26 -9 20 -12 -20 -7 -15 -23 7 -23 12 0 20 -7 20 -16 0 -11 -6
-15 -20 -11 -21 5 -28 -7 -9 -18 6 -5 4 -12 -8 -22 -17 -13 -16 -14 13 -9 33
5 54 -8 54 -35 0 -9 10 -20 23 -24 19 -6 19 -8 5 -12 -10 -2 -18 -9 -18 -14 0
-6 8 -8 19 -4 27 8 48 -20 30 -42 -12 -16 -12 -17 2 -5 24 18 42 -8 35 -50 -4
-22 -3 -26 2 -14 19 44 22 -16 8 -142 -3 -29 -13 -66 -21 -82 -8 -16 -15 -39
-15 -50 0 -25 -26 -54 -40 -45 -5 3 -10 13 -10 21 0 8 4 13 10 9 5 -3 3 5 -4
19 -7 14 -11 46 -9 73 2 26 5 61 6 78 1 20 -3 30 -12 30 -8 0 -16 6 -19 14 -3
8 -1 11 4 8 5 -3 9 9 10 26 1 30 0 30 -9 10 -5 -13 -14 -23 -19 -23 -11 0 1
42 14 51 5 3 3 9 -6 12 -9 4 -16 13 -16 21 0 10 -6 13 -17 9 -13 -5 -15 -2
-10 12 11 26 -2 58 -20 51 -10 -4 -13 -1 -11 12 2 9 10 16 17 14 18 -4 4 37
-22 65 -22 25 -41 21 -32 -7 4 -13 -1 -20 -22 -25 -15 -4 -22 -10 -15 -12 6
-3 12 -9 12 -15 0 -6 -6 -8 -12 -5 -9 3 -14 -7 -15 -29 -1 -30 5 -38 28 -36 3
1 11 -10 17 -23 13 -29 5 -33 -15 -7 -13 16 -14 15 -9 -8 5 -22 4 -21 -10 5
l-15 30 6 -29 c3 -16 2 -32 -4 -35 -6 -4 -7 -12 -1 -21 8 -13 10 -12 10 3 0
21 31 20 38 -1 2 -7 -2 -10 -10 -7 -11 4 -13 -3 -10 -31 4 -36 4 -37 -24 -31
-16 4 -23 4 -16 1 13 -6 17 -36 6 -47 -4 -3 -15 5 -26 18 -10 13 -28 27 -40
31 -16 5 -18 8 -7 15 10 6 11 11 3 17 -6 4 -14 14 -17 22 -4 12 -6 11 -6 -2
-1 -10 -5 -18 -11 -18 -14 0 -12 24 2 38 10 10 10 15 -2 22 -8 6 -21 8 -27 5
-16 -6 -17 7 -1 23 9 9 9 17 -2 36 -15 30 -16 89 -1 94 7 2 2 15 -10 30 -13
17 -16 28 -9 30 7 3 3 10 -9 19 -24 16 -27 33 -7 33 18 0 27 25 14 38 -7 7 -6
16 1 30 7 13 7 23 1 27 -13 8 -1 35 16 35 8 0 15 -10 15 -22z m-3237 1 c-6
-11 -31 -12 -37 -1 -3 4 6 8 19 8 13 1 21 -2 18 -7z m-914 -19 c0 -5 -7 -7
-15 -4 -8 4 -12 10 -9 15 6 11 24 2 24 -11z m100 0 c0 -5 -2 -10 -4 -10 -3 0
-8 5 -11 10 -3 6 -1 10 4 10 6 0 11 -4 11 -10z m853 -26 c-26 -19 -35 -17 -23
6 6 11 16 17 25 13 13 -5 13 -7 -2 -19z m3157 16 c0 -5 -4 -10 -10 -10 -5 0
-10 5 -10 10 0 6 5 10 10 10 6 0 10 -4 10 -10z m-4035 -18 c-3 -3 -11 0 -18 7
-9 10 -8 11 6 5 10 -3 15 -9 12 -12z m84 -37 c0 -5 -6 -1 -14 9 -8 11 -15 24
-15 30 0 5 7 1 15 -10 8 -10 14 -23 14 -29z m-194 25 c3 -5 1 -10 -4 -10 -6 0
-11 5 -11 10 0 6 2 10 4 10 3 0 8 -4 11 -10z m115 -10 c0 -9 -61 -20 -73 -13
-5 3 2 11 15 17 23 12 58 10 58 -4z m4024 -12 c7 -5 5 -8 -6 -8 -21 0 -32 16
-22 32 6 9 9 8 12 -2 3 -8 10 -18 16 -22z m-3124 18 c0 -11 -19 -15 -25 -6 -3
5 1 10 9 10 9 0 16 -2 16 -4z m-175 -24 c-3 -3 -11 0 -18 7 -9 10 -8 11 6 5
10 -3 15 -9 12 -12z m679 -7 c-4 -8 -10 -15 -15 -15 -4 0 -6 7 -3 15 4 8 10
15 15 15 4 0 6 -7 3 -15z m96 0 c0 -8 -7 -15 -16 -15 -14 0 -14 3 -4 15 7 8
14 15 16 15 2 0 4 -7 4 -15z m-1440 1 c0 -2 -7 -9 -15 -16 -12 -10 -15 -10
-15 4 0 9 7 16 15 16 8 0 15 -2 15 -4z m32 -18 c-7 -7 -12 -8 -12 -2 0 14 12
26 19 19 2 -3 -1 -11 -7 -17z m828 11 c0 -7 -9 -9 -21 -6 -12 3 -33 1 -48 -4
-24 -9 -25 -8 -7 6 23 17 76 20 76 4z m146 -14 c1 -9 -6 -15 -17 -15 -22 0
-24 6 -6 24 13 15 20 13 23 -9z m-76 5 c0 -5 7 -10 15 -10 8 0 15 -7 15 -15 0
-9 9 -15 24 -15 14 0 28 -5 32 -12 5 -8 0 -9 -17 -5 -13 4 -32 7 -41 7 -9 0
-20 9 -23 20 -7 23 -25 27 -25 5 0 -17 -16 -20 -25 -5 -3 6 -1 10 6 10 8 0 8
4 -1 15 -11 13 -8 15 14 15 14 0 26 -4 26 -10z m-1750 -22 c0 -10 -7 -21 -15
-24 -8 -4 -15 -13 -15 -21 0 -23 -24 -9 -30 18 -5 17 -1 27 13 35 28 16 47 13
47 -8z m1870 12 c0 -5 -2 -10 -4 -10 -3 0 -8 5 -11 10 -3 6 -1 10 4 10 6 0 11
-4 11 -10z m600 -14 c0 -11 -19 -15 -25 -6 -3 5 1 10 9 10 9 0 16 -2 16 -4z
m-1896 -41 c-26 -19 -31 -9 -8 16 11 12 20 16 22 9 2 -6 -4 -17 -14 -25z m433
19 c-3 -3 -12 -4 -19 -1 -8 3 -5 6 6 6 11 1 17 -2 13 -5z m908 -4 c-3 -5 -12
-10 -18 -10 -7 0 -6 4 3 10 19 12 23 12 15 0z m210 0 c3 -5 1 -10 -4 -10 -6 0
-11 5 -11 10 0 6 2 10 4 10 3 0 8 -4 11 -10z m-2638 -22 c-3 -8 -6 -5 -6 6 -1
11 2 17 5 13 3 -3 4 -12 1 -19z m1233 4 c0 -11 -9 -27 -20 -37 -11 -10 -20
-13 -20 -7 0 6 5 14 10 17 6 3 10 15 10 26 0 10 5 19 10 19 6 0 10 -8 10 -18z
m-237 -35 c9 14 64 8 125 -12 23 -8 49 -15 57 -15 18 0 18 -5 5 -30 -9 -17 -8
-17 40 -1 36 11 48 20 45 30 -4 11 -1 11 13 -2 10 -9 25 -17 33 -16 8 0 4 4
-8 9 -23 9 -32 40 -13 40 6 0 10 7 10 15 0 33 18 12 22 -25 4 -47 -7 -63 -34
-49 -12 7 -18 6 -18 -1 0 -6 -6 -10 -12 -8 -7 1 -35 -8 -62 -20 -54 -24 -253
-68 -263 -58 -6 5 5 77 23 166 l6 25 12 -30 c7 -18 15 -25 19 -18z m1227 33
c0 -5 -4 -10 -10 -10 -5 0 -10 5 -10 10 0 6 5 10 10 10 6 0 10 -4 10 -10z
m-1795 -10 c3 -5 1 -10 -4 -10 -6 0 -11 5 -11 10 0 6 2 10 4 10 3 0 8 -4 11
-10z m1910 -20 c17 -33 10 -40 -11 -12 -13 17 -19 42 -9 42 2 0 11 -13 20 -30z
m2671 -41 l13 -44 -25 28 c-13 16 -22 33 -19 38 4 5 2 9 -3 9 -5 0 -12 9 -15
21 -5 19 -4 19 15 7 12 -8 27 -34 34 -59z m-4699 31 c14 -11 21 -20 14 -20 -6
0 -11 -8 -12 -17 0 -10 -3 -13 -5 -7 -3 7 -15 10 -27 7 -21 -4 -21 -4 -2 8 28
17 28 16 20 29 -5 8 -11 8 -21 -1 -14 -11 -20 1 -7 14 9 10 12 9 40 -13z
m2070 5 c0 -11 -4 -12 -14 -4 -7 6 -13 13 -13 15 0 2 6 4 13 4 8 0 14 -7 14
-15z m2573 5 c0 -5 -2 -10 -4 -10 -3 0 -8 5 -11 10 -3 6 -1 10 4 10 6 0 11 -4
11 -10z m80 -10 c0 -11 5 -20 10 -20 6 0 10 -5 10 -12 0 -6 -9 -3 -20 7 -21
19 -27 45 -10 45 6 0 10 -9 10 -20z m-2590 0 c0 -5 -2 -10 -4 -10 -3 0 -8 5
-11 10 -3 6 -1 10 4 10 6 0 11 -4 11 -10z m377 -12 c-3 -8 -6 -5 -6 6 -1 11 2
17 5 13 3 -3 4 -12 1 -19z m-2890 -10 c-3 -8 -6 -5 -6 6 -1 11 2 17 5 13 3 -3
4 -12 1 -19z m503 13 c0 -6 -4 -13 -10 -16 -5 -3 -10 1 -10 9 0 9 5 16 10 16
6 0 10 -4 10 -9z m-74 -27 c-9 -9 -20 -14 -23 -10 -4 3 2 13 13 20 25 18 31
12 10 -10z m2234 16 c0 -5 -4 -10 -10 -10 -5 0 -10 5 -10 10 0 6 5 10 10 10 6
0 10 -4 10 -10z m-2520 -7 c-1 -5 -8 -19 -16 -33 l-15 -25 6 28 c4 19 2 26 -5
22 -5 -3 -10 -1 -10 4 0 6 9 11 20 11 11 0 20 -3 20 -7z m2327 -8 c0 -8 -4
-15 -9 -15 -4 0 -8 7 -8 15 0 8 4 15 8 15 5 0 9 -7 9 -15z m51 7 c15 -10 5
-42 -13 -42 -24 0 -27 20 -3 21 17 1 18 3 6 6 -10 2 -18 9 -18 14 0 11 11 11
28 1z m-2428 -22 c0 -11 -2 -20 -4 -20 -2 0 -6 9 -9 20 -3 11 -1 20 4 20 5 0
9 -9 9 -20z m2331 1 c-6 -10 -8 -21 -5 -24 3 -3 2 -16 -2 -29 -7 -20 -9 -19
-14 17 -7 46 -4 55 16 55 11 0 12 -4 5 -19z m2623 3 c9 -22 -3 -32 -14 -14
-12 19 -12 30 -1 30 5 0 12 -7 15 -16z m546 -19 c-14 -17 -30 -20 -30 -5 0 6
7 10 15 10 8 0 15 8 16 18 0 11 2 12 6 4 3 -7 -1 -19 -7 -27z m-5400 15 c0 -5
-4 -10 -10 -10 -5 0 -10 5 -10 10 0 6 5 10 10 10 6 0 10 -4 10 -10z m290 -15
c-7 -8 -16 -15 -21 -15 -5 0 -1 9 8 20 9 11 19 17 21 15 3 -3 -1 -11 -8 -20z
m-68 -17 c-7 -7 -12 -8 -12 -2 0 14 12 26 19 19 2 -3 -1 -11 -7 -17z m1868 12
c0 -5 -5 -10 -11 -10 -5 0 -7 5 -4 10 3 6 8 10 11 10 2 0 4 -4 4 -10z m185 0
c3 -5 -1 -10 -9 -10 -9 0 -16 5 -16 10 0 6 4 10 9 10 6 0 13 -4 16 -10z
m-2095 -20 c0 -5 -7 -7 -15 -4 -8 4 -15 8 -15 10 0 2 7 4 15 4 8 0 15 -4 15
-10z m2135 0 c3 -5 2 -10 -4 -10 -5 0 -13 5 -16 10 -3 6 -2 10 4 10 5 0 13 -4
16 -10z m-925 -20 c20 -15 21 -20 8 -20 -9 0 -20 5 -23 10 -9 15 -25 12 -25
-5 0 -9 7 -18 15 -21 12 -5 10 -10 -9 -25 -27 -21 -96 -26 -96 -7 0 6 -6 3
-14 -8 -8 -10 -18 -16 -21 -12 -4 4 -15 3 -25 -2 -19 -10 -92 8 -84 21 2 5 11
6 19 2 8 -3 15 0 15 7 0 6 5 8 10 5 10 -6 11 -3 14 37 0 12 7 23 15 26 8 3 11
0 7 -7 -4 -6 -1 -11 8 -11 9 0 16 -4 16 -10 0 -17 38 -11 49 7 9 17 11 16 33
-5 26 -23 38 -28 38 -13 0 5 -9 11 -20 14 -11 3 -20 10 -20 17 0 7 8 9 19 5
11 -3 22 -1 26 5 9 14 16 12 45 -10z m754 5 c3 -8 2 -15 -3 -15 -5 0 -14 7
-21 15 -10 12 -10 15 3 15 8 0 17 -7 21 -15z m-2159 -5 c3 -5 1 -10 -4 -10 -6
0 -11 5 -11 10 0 6 2 10 4 10 3 0 8 -4 11 -10z m1269 -5 c3 -9 0 -15 -9 -15
-8 0 -15 7 -15 15 0 8 4 15 9 15 5 0 11 -7 15 -15z m1159 0 c-3 -9 -8 -14 -10
-11 -3 3 -2 9 2 15 9 16 15 13 8 -4z m-2583 -11 c0 -2 -7 -4 -15 -4 -8 0 -15
4 -15 10 0 5 7 7 15 4 8 -4 15 -8 15 -10z m220 12 c0 -3 -4 -8 -10 -11 -5 -3
-10 -1 -10 4 0 6 5 11 10 11 6 0 10 -2 10 -4z m30 0 c0 -3 -4 -8 -10 -11 -5
-3 -10 -1 -10 4 0 6 5 11 10 11 6 0 10 -2 10 -4z m50 0 c0 -3 -4 -8 -10 -11
-5 -3 -10 -1 -10 4 0 6 5 11 10 11 6 0 10 -2 10 -4z m-188 -38 c-12 -12 -25
-18 -29 -14 -4 5 -2 11 5 13 7 3 18 11 25 18 7 7 14 11 16 9 3 -3 -5 -14 -17
-26z m1212 17 c-4 -8 -8 -15 -10 -15 -2 0 -4 7 -4 15 0 8 4 15 10 15 5 0 7 -7
4 -15z m4304 -22 c-14 -18 -19 -12 -11 16 4 16 8 19 14 10 4 -7 3 -19 -3 -26z
m-3061 -15 c-3 -10 -1 -18 4 -18 5 0 9 -5 9 -12 0 -6 -3 -8 -6 -5 -4 4 -20 -3
-35 -14 -29 -21 -38 -39 -18 -39 5 0 7 5 4 10 -3 6 -2 10 3 10 5 0 10 -11 10
-25 0 -25 -21 -34 -33 -15 -3 6 -11 10 -17 10 -7 0 1 -14 18 -32 16 -18 21
-26 12 -19 -16 12 -18 11 -19 -5 -1 -11 -1 -22 0 -26 0 -5 -4 -8 -10 -8 -6 0
-9 7 -5 15 3 9 0 15 -8 15 -7 0 -19 7 -26 15 -7 8 -18 15 -25 15 -8 0 -1 -13
15 -28 22 -22 28 -38 28 -73 1 -37 -1 -41 -10 -24 -22 39 -57 62 -44 30 3 -8
1 -15 -5 -15 -6 0 -8 -4 -5 -9 4 -5 -3 -7 -14 -4 -18 5 -24 17 -23 51 1 23
-15 12 -22 -15 -6 -26 -8 -27 -20 -10 -17 23 -8 57 15 57 11 0 20 10 23 26 3
18 1 24 -9 20 -18 -7 -18 23 0 47 17 22 22 22 29 -3 3 -11 0 -20 -6 -20 -7 0
-6 -5 2 -12 11 -11 14 -10 18 0 3 6 10 9 16 6 8 -5 8 -2 0 7 -19 20 -16 31 6
19 11 -5 23 -19 26 -30 8 -26 25 -26 25 0 0 11 -8 24 -17 27 -10 4 -21 11 -25
17 -11 16 -9 46 3 46 6 0 8 -8 5 -18 -5 -13 2 -21 26 -30 38 -14 49 -8 22 13
-18 14 -18 14 4 10 12 -2 22 0 22 6 0 5 7 9 15 9 12 0 13 4 3 26 -10 20 -9 27
2 34 19 12 43 -9 37 -32z m-2230 26 c-3 -3 -12 -4 -19 -1 -8 3 -5 6 6 6 11 1
17 -2 13 -5z m1954 -35 c-9 -23 -10 -22 -10 11 -1 23 2 31 9 24 7 -7 7 -19 1
-35z m49 34 c0 -5 -5 -15 -10 -23 -8 -12 -10 -11 -10 8 0 12 5 22 10 22 6 0
10 -3 10 -7z m310 -19 c0 -14 -4 -23 -9 -20 -5 3 -7 15 -4 26 7 28 13 25 13
-6z m25 16 c3 -5 1 -10 -4 -10 -6 0 -11 5 -11 10 0 6 2 10 4 10 3 0 8 -4 11
-10z m-2525 -4 c0 -3 -4 -8 -10 -11 -5 -3 -10 -1 -10 4 0 6 5 11 10 11 6 0 10
-2 10 -4z m2323 -3 c-7 -2 -19 -2 -25 0 -7 3 -2 5 12 5 14 0 19 -2 13 -5z
m-906 -45 c-3 -8 -6 -5 -6 6 -1 11 2 17 5 13 3 -3 4 -12 1 -19z m1043 10 c0
-17 -18 -44 -24 -37 -8 7 5 49 15 49 5 0 9 -6 9 -12z m415 2 c-3 -5 -10 -10
-16 -10 -5 0 -9 5 -9 10 0 6 7 10 16 10 8 0 12 -4 9 -10z m-1505 -26 c0 -8 -6
-14 -14 -14 -8 0 -21 -3 -29 -6 -12 -4 -14 0 -10 14 6 23 53 28 53 6z m-200
-4 c0 -5 -5 -10 -11 -10 -5 0 -7 5 -4 10 3 6 8 10 11 10 2 0 4 -4 4 -10z
m1090 0 c0 -5 -5 -10 -11 -10 -5 0 -7 5 -4 10 3 6 8 10 11 10 2 0 4 -4 4 -10z
m390 -10 c0 -5 -2 -10 -4 -10 -3 0 -8 5 -11 10 -3 6 -1 10 4 10 6 0 11 -4 11
-10z m-1360 -34 c0 -17 -26 -3 -27 14 -2 18 0 18 13 6 8 -8 14 -17 14 -20z
m4177 12 c-3 -8 -6 -5 -6 6 -1 11 2 17 5 13 3 -3 4 -12 1 -19z m-5731 -2 c12
-13 10 -14 -13 -11 -16 2 -29 4 -31 4 -2 1 0 6 3 11 9 14 24 12 41 -4z m131 8
c-3 -3 -12 -4 -19 -1 -8 3 -5 6 6 6 11 1 17 -2 13 -5z m1458 -13 c3 -5 1 -12
-5 -16 -5 -3 -10 1 -10 9 0 18 6 21 15 7z m1119 -3 c-3 -4 -12 -8 -20 -8 -8 0
-14 4 -14 8 0 4 9 8 19 8 11 0 17 -4 15 -8z m-324 -2 c0 -3 -4 -8 -10 -11 -5
-3 -10 -1 -10 4 0 6 5 11 10 11 6 0 10 -2 10 -4z m470 -6 c0 -5 -4 -10 -10
-10 -5 0 -10 5 -10 10 0 6 5 10 10 10 6 0 10 -4 10 -10z m2850 0 c0 -5 -5 -10
-11 -10 -5 0 -7 5 -4 10 3 6 8 10 11 10 2 0 4 -4 4 -10z m116 -26 c-19 -19
-21 -11 -4 16 7 11 14 16 16 10 2 -5 -4 -17 -12 -26z m-276 16 c0 -5 -5 -10
-11 -10 -5 0 -7 5 -4 10 3 6 8 10 11 10 2 0 4 -4 4 -10z m72 -47 c7 -18 16
-33 20 -33 4 0 8 -4 8 -10 0 -21 -19 -9 -39 26 -12 19 -24 33 -29 31 -4 -3 -8
5 -8 18 -2 21 0 22 17 12 11 -7 25 -27 31 -44z m53 19 c-3 -39 -35 -60 -35
-22 0 11 4 20 9 20 5 0 7 10 3 23 -5 19 -3 20 10 10 8 -7 14 -21 13 -31z
m-2917 8 c3 -9 -1 -11 -13 -6 -11 4 -22 1 -27 -6 -6 -10 -10 -10 -17 2 -5 8
-8 17 -5 21 7 12 58 3 62 -11z m-1208 0 c0 -5 -4 -10 -10 -10 -5 0 -10 5 -10
10 0 6 5 10 10 10 6 0 10 -4 10 -10z m4170 -10 c0 -5 -4 -10 -10 -10 -5 0 -10
5 -10 10 0 6 5 10 10 10 6 0 10 -4 10 -10z m-2773 -22 c-3 -8 -6 -5 -6 6 -1
11 2 17 5 13 3 -3 4 -12 1 -19z m-567 -4 c0 -8 -5 -12 -10 -9 -6 4 -8 11 -5
16 9 14 15 11 15 -7z m2950 1 c7 -8 10 -22 6 -30 -7 -18 10 -20 18 -2 3 6 3
-6 0 -28 -9 -58 -9 -77 3 -106 15 -35 20 -88 8 -89 -6 0 -13 14 -16 32 -6 29
-9 29 -13 -1 -2 -19 -16 -23 -22 -7 -4 9 -17 16 -33 16 -21 0 -23 -2 -11 -11
13 -9 13 -10 -2 -6 -9 3 -19 3 -21 -1 -5 -10 0 9 8 31 6 15 4 16 -18 8 -20 -8
-27 -6 -31 6 -4 9 -5 16 -4 17 2 1 13 6 24 13 16 9 24 9 33 0 15 -15 15 27 0
55 -13 23 -4 37 13 20 7 -7 16 -12 20 -12 4 0 -1 9 -12 20 -12 12 -17 26 -13
36 4 12 3 15 -5 10 -7 -4 -12 -14 -12 -22 0 -14 -2 -14 -15 0 -12 12 -13 20
-6 35 16 29 81 40 101 16z m-5190 -5 c0 -5 -2 -10 -4 -10 -3 0 -8 5 -11 10 -3
6 -1 10 4 10 6 0 11 -4 11 -10z m-256 -15 c-4 -8 -10 -15 -15 -15 -4 0 -6 7
-3 15 4 8 10 15 15 15 4 0 6 -7 3 -15z m171 5 c3 -5 -1 -10 -9 -10 -9 0 -16 5
-16 10 0 6 4 10 9 10 6 0 13 -4 16 -10z m2725 -7 c0 -10 -4 -14 -8 -8 -4 6
-11 13 -16 18 -5 4 -2 7 7 7 10 0 17 -8 17 -17z m-2841 -21 c0 -14 -2 -13 -9
3 -5 11 -9 14 -9 7 -1 -7 -6 -10 -12 -6 -8 4 -7 9 2 15 17 10 29 2 28 -19z
m78 1 c-7 -6 -46 10 -41 18 3 5 14 3 24 -3 11 -7 18 -13 17 -15z m100 21 c-3
-3 -12 -4 -19 -1 -8 3 -5 6 6 6 11 1 17 -2 13 -5z m2843 -4 c0 -5 -2 -10 -4
-10 -3 0 -8 5 -11 10 -3 6 -1 10 4 10 6 0 11 -4 11 -10z m-40 -31 c0 -18 -18
-9 -23 12 -4 16 -3 18 9 8 8 -6 14 -15 14 -20z m-2754 6 c-26 -19 -42 -19 -26
0 7 8 20 15 29 15 13 -1 13 -3 -3 -15z m-266 -16 c-11 -8 -12 -12 -2 -16 6 -2
10 -9 7 -14 -4 -5 -12 -3 -20 4 -14 13 -2 37 19 37 6 0 4 -5 -4 -11z m80 1
c-20 -13 -43 -13 -35 0 3 6 16 10 28 10 18 0 19 -2 7 -10z m5410 0 c0 -5 -5
-10 -11 -10 -5 0 -7 5 -4 10 3 6 8 10 11 10 2 0 4 -4 4 -10z m269 -4 c14 -17
5 -86 -11 -86 -6 0 -7 11 -4 24 3 14 1 28 -4 31 -6 4 -8 11 -5 16 4 5 1 9 -5
9 -6 0 -8 5 -5 10 9 14 20 12 34 -4z m-5629 -5 c0 -5 -10 -11 -22 -14 -22 -6
-22 -6 -4 8 23 17 26 18 26 6z m90 5 c0 -2 -7 -6 -15 -10 -8 -3 -15 -1 -15 4
0 6 7 10 15 10 8 0 15 -2 15 -4z m2296 -21 c-3 -20 -13 -28 -26 -20 -8 5 -5
11 7 21 23 17 22 17 19 -1z m274 -49 c0 -11 -15 -5 -44 18 -16 13 -26 28 -22
34 6 9 66 -38 66 -52z m-187 37 c22 -13 2 -20 -33 -11 -48 12 -55 33 -7 23 17
-4 35 -9 40 -12z m377 7 c0 -5 -2 -10 -4 -10 -3 0 -8 5 -11 10 -3 6 -1 10 4
10 6 0 11 -4 11 -10z m-2821 -21 c-6 -12 -20 -24 -30 -26 -24 -7 -25 -23 -2
-23 14 0 15 -2 4 -12 -10 -11 -15 -10 -24 3 -10 14 -14 14 -25 3 -14 -16 -16
-44 -2 -44 6 0 10 4 10 8 0 5 7 9 15 9 8 0 15 -4 15 -9 0 -4 -7 -8 -15 -8 -9
0 -15 -10 -16 -22 0 -15 -2 -18 -6 -8 -3 8 -12 18 -19 22 -7 5 -12 28 -12 57
l-1 48 39 -3 c25 -2 42 2 50 11 19 23 32 18 19 -6z m5315 6 c-4 -8 -10 -12
-15 -9 -11 6 -2 24 11 24 5 0 7 -7 4 -15z m-5454 -15 c-24 -15 -37 -11 -16 5
11 8 22 12 25 9 3 -3 -1 -9 -9 -14z m250 10 c0 -5 -4 -10 -10 -10 -5 0 -10 5
-10 10 0 6 5 10 10 10 6 0 10 -4 10 -10z m5530 -11 c0 -11 -4 -17 -10 -14 -5
3 -10 13 -10 21 0 8 5 14 10 14 6 0 10 -9 10 -21z m-5562 -6 c16 -16 16 -16
-1 -10 -10 4 -23 7 -28 7 -5 0 -9 5 -9 10 0 15 20 12 38 -7z m2432 8 c0 -5 9
-7 20 -4 22 6 63 -24 54 -38 -3 -5 2 -9 10 -9 23 0 20 -17 -4 -25 -13 -4 -30
1 -47 15 l-26 21 -15 -42 c-9 -28 -10 -44 -3 -48 15 -10 26 -91 12 -91 -6 0
-11 9 -11 19 0 11 -4 22 -9 26 -5 3 -12 18 -16 35 -4 18 -11 27 -19 24 -8 -3
-16 2 -19 10 -4 9 -17 16 -31 16 -32 0 -42 16 -19 29 16 9 16 12 3 21 -11 8
-6 9 22 7 40 -4 73 -30 62 -48 -4 -8 -3 -9 4 -5 7 4 12 27 12 52 0 24 5 44 10
44 6 0 10 -4 10 -9z m-2100 -11 c0 -5 -5 -10 -11 -10 -5 0 -7 5 -4 10 3 6 8
10 11 10 2 0 4 -4 4 -10z m-405 -10 c3 -5 1 -10 -4 -10 -6 0 -11 5 -11 10 0 6
2 10 4 10 3 0 8 -4 11 -10z m5319 -5 c3 -8 1 -15 -4 -15 -6 0 -10 7 -10 15 0
8 2 15 4 15 2 0 6 -7 10 -15z m-5509 -11 c-9 -9 -19 -13 -23 -10 -3 4 0 11 8
16 24 15 33 11 15 -6z m48 -4 c-3 -11 -14 -20 -24 -20 -18 0 -18 1 -1 19 23
25 31 26 25 1z m5927 -6 c0 -8 5 -12 10 -9 6 3 10 1 10 -4 0 -6 -9 -11 -20
-11 -13 0 -20 7 -20 20 0 11 5 20 10 20 6 0 10 -7 10 -16z m-6034 -10 c-9 -8
-16 -20 -16 -25 0 -5 -5 -9 -10 -9 -6 0 -3 11 6 25 9 14 21 25 26 25 5 0 2 -7
-6 -16z m2907 -31 c0 -27 3 -54 9 -60 6 -7 7 -13 4 -13 -21 0 -32 29 -28 73 5
61 17 61 15 0z m-2633 24 c0 -2 -9 -12 -20 -22 -19 -17 -20 -17 -20 -1 0 9 5
14 10 11 6 -3 10 -1 10 4 0 6 5 11 10 11 6 0 10 -2 10 -3z m90 -13 c0 -8 -5
-12 -10 -9 -6 4 -8 11 -5 16 9 14 15 11 15 -7z m-290 -4 c0 -5 -2 -10 -4 -10
-3 0 -8 5 -11 10 -3 6 -1 10 4 10 6 0 11 -4 11 -10z m235 0 c3 -5 1 -10 -4
-10 -6 0 -11 5 -11 10 0 6 2 10 4 10 3 0 8 -4 11 -10z m2245 -6 c0 -8 10 -14
23 -14 13 0 27 -3 30 -7 9 -8 -31 -37 -57 -40 -14 -3 -17 1 -13 17 3 13 0 23
-9 27 -21 8 -17 29 6 30 11 1 20 -4 20 -13z m230 -24 c0 -22 -4 -28 -15 -24
-15 6 -20 35 -8 47 14 15 23 6 23 -23z m-2760 5 c0 -8 -2 -15 -4 -15 -2 0 -6
7 -10 15 -3 8 -1 15 4 15 6 0 10 -7 10 -15z m2840 0 c0 -8 -4 -15 -10 -15 -5
0 -10 7 -10 15 0 8 5 15 10 15 6 0 10 -7 10 -15z m-2613 -17 c-12 -13 -24 -18
-26 -13 -2 6 -9 14 -15 18 -6 5 -1 6 11 2 12 -3 24 -1 28 5 3 5 10 10 15 10 5
0 -1 -10 -13 -22z m-60 -10 c-3 -8 -6 -5 -6 6 -1 11 2 17 5 13 3 -3 4 -12 1
-19z m2463 -8 c0 -14 9 -21 36 -26 25 -5 34 -11 32 -23 -2 -9 -11 -15 -21 -13
-22 4 -22 -7 0 -24 14 -9 18 -27 18 -77 0 -36 -3 -63 -8 -60 -4 2 -12 -8 -17
-22 -6 -15 -15 -23 -21 -20 -6 4 -8 13 -5 21 3 8 -1 14 -9 14 -16 0 -20 37 -6
59 12 19 24 -3 16 -32 -4 -16 -4 -18 3 -8 5 7 15 10 21 7 7 -5 11 4 11 24 0
24 -4 31 -14 27 -8 -3 -16 -1 -18 5 -3 7 -12 9 -22 5 -11 -4 -16 -13 -12 -22
3 -8 -3 -19 -12 -24 -14 -8 -15 -12 -4 -22 6 -7 12 -24 12 -38 0 -21 2 -23 10
-11 8 13 10 12 10 -2 0 -10 4 -18 8 -18 5 0 9 -18 10 -40 1 -30 -2 -40 -14
-40 -11 0 -13 6 -9 20 4 11 2 20 -4 20 -6 0 -11 -7 -11 -16 0 -8 -4 -12 -10
-9 -5 3 -10 0 -10 -7 0 -7 -3 -24 -7 -38 -6 -22 -5 -24 10 -11 9 7 17 9 17 5
0 -5 -9 -15 -21 -22 -14 -9 -18 -19 -14 -35 6 -21 5 -21 -9 -3 -9 10 -22 16
-31 13 -8 -4 -15 -2 -15 2 0 5 6 11 13 14 6 2 9 7 6 11 -8 9 -62 -15 -72 -32
-7 -11 -12 -9 -24 7 -8 12 -11 26 -8 31 3 6 1 10 -5 10 -12 0 -33 -48 -25 -60
3 -4 -12 -4 -32 0 -20 5 -40 7 -44 4 -10 -6 12 -84 23 -84 17 0 -15 -32 -45
-45 l-28 -12 25 -24 c25 -24 36 -69 16 -69 -5 0 -10 7 -10 15 0 12 -4 13 -18
6 -24 -13 -62 -3 -62 16 0 10 6 13 18 8 9 -4 23 -9 30 -12 7 -3 12 3 12 16 0
18 -4 20 -24 15 -13 -3 -37 1 -54 10 -28 14 -31 14 -52 -4 -14 -12 -18 -20
-10 -20 7 0 11 -3 7 -6 -3 -3 -20 1 -38 10 -18 9 -34 14 -37 12 -7 -8 9 -26
24 -26 8 0 14 -4 14 -10 0 -5 13 -10 29 -10 17 0 33 -5 36 -10 4 -7 -2 -9 -19
-4 -19 4 -28 2 -32 -10 -9 -22 4 -66 19 -66 6 0 13 -11 13 -25 1 -14 -2 -25
-7 -25 -5 0 -9 5 -9 10 0 6 -7 10 -15 10 -8 0 -15 -4 -15 -10 0 -5 4 -10 9
-10 5 0 16 -13 25 -30 16 -33 11 -40 -10 -12 -13 16 -13 16 -14 -2 0 -29 -12
-11 -16 26 -4 35 -23 63 -26 38 -3 -32 -4 -35 -12 -49 -6 -9 -5 -12 2 -7 6 3
13 2 16 -3 13 -21 -14 -20 -28 1 -19 27 -38 14 -38 -26 0 -14 -4 -26 -9 -26
-5 0 -9 5 -9 10 0 6 -6 10 -12 9 -26 -3 -34 1 -35 19 -1 15 4 17 29 14 21 -3
29 -1 24 6 -4 6 -13 9 -20 6 -8 -3 -17 -1 -21 5 -3 6 -13 11 -22 11 -11 0 -14
-6 -8 -27 5 -23 4 -25 -10 -13 -8 7 -18 10 -22 6 -3 -3 -1 -6 5 -6 7 0 12 -7
12 -15 0 -13 -4 -14 -21 -4 -13 7 -19 17 -16 29 3 12 -2 20 -16 24 -28 7 -42
-3 -23 -17 16 -13 24 -65 13 -84 -4 -6 -4 -18 -1 -27 9 -22 -6 -20 -33 5 -20
19 -25 20 -40 8 -17 -13 -17 -13 -4 4 12 15 12 20 2 27 -8 4 -11 16 -6 29 9
29 23 26 17 -4 -3 -18 0 -25 11 -25 8 0 17 -6 20 -12 2 -7 8 -10 12 -6 5 5 -1
16 -11 25 -11 10 -18 26 -16 36 2 10 -3 17 -12 17 -9 0 -16 5 -16 10 0 6 9 10
20 10 27 0 25 5 -11 41 -23 23 -28 33 -19 39 7 4 8 10 3 13 -5 3 -14 -3 -21
-13 -10 -16 -8 -20 8 -25 11 -4 18 -11 14 -16 -4 -6 -10 -6 -18 0 -7 6 -15 9
-17 6 -3 -2 -10 5 -17 15 -10 16 -10 20 2 20 16 0 29 27 20 42 -4 5 3 8 16 6
26 -3 55 31 33 39 -18 6 -16 40 1 46 10 4 13 1 9 -9 -3 -8 2 -30 12 -50 9 -20
14 -38 11 -41 -3 -4 -6 -1 -6 5 0 7 -5 12 -11 12 -5 0 -7 -4 -4 -10 3 -5 1
-10 -4 -10 -6 0 -11 -9 -11 -21 0 -13 4 -18 12 -13 7 5 9 2 5 -9 -6 -15 20
-34 31 -22 3 3 1 5 -5 5 -16 0 -4 38 14 44 10 4 13 14 10 29 -3 12 -2 42 1 67
6 38 11 45 30 46 12 1 25 -3 28 -7 10 -17 26 -9 21 12 -3 12 0 22 9 26 8 3 13
11 10 18 -6 17 15 25 43 18 12 -3 21 -1 21 6 0 6 -9 11 -20 11 -13 0 -20 7
-20 20 0 11 -5 20 -12 20 -6 0 -8 3 -5 6 4 4 14 1 22 -6 13 -11 18 -10 30 6
17 23 18 31 5 39 -6 4 -5 11 4 20 7 8 11 25 9 39 -6 27 5 34 24 15 8 -8 17 -7
34 5 33 23 43 20 20 -5 -16 -18 -18 -25 -8 -40 7 -11 20 -19 30 -19 10 0 28
-5 40 -12 31 -17 47 -18 47 -3 0 8 -7 11 -20 8 -14 -4 -20 0 -20 11 0 15 12
21 35 16 6 -1 5 4 -2 11 -10 10 -15 10 -27 0 -11 -10 -23 -10 -43 -3 l-28 10
27 1 c15 1 30 5 33 11 6 10 45 8 80 -5 18 -6 18 -5 -2 13 -28 25 -28 23 2 56
26 29 37 33 34 14 -3 -24 1 -38 11 -38 6 0 10 10 10 22 0 12 3 18 8 14 4 -4 7
-16 7 -27 0 -29 20 -23 22 7 2 29 28 62 39 51 3 -3 -1 -14 -11 -23 -17 -17
-17 -18 1 -25 11 -3 22 -5 27 -2 13 7 8 50 -8 63 -8 7 -12 16 -9 22 3 5 1 14
-4 21 -6 8 -4 17 7 28 15 15 18 15 35 -2 17 -17 18 -19 3 -19 -19 0 -23 -15
-6 -25 16 -11 23 2 22 40 -1 19 3 35 9 35 5 0 6 5 3 10 -11 17 14 39 56 50 22
6 37 15 34 20 -4 6 0 10 7 10 10 0 10 2 -1 9 -8 5 -9 11 -3 15 5 3 15 -1 22
-9 10 -12 16 -13 26 -4 15 12 18 5 14 -38 -1 -14 4 -23 13 -23 8 0 18 -10 22
-22 4 -15 8 -18 12 -10 3 7 -3 22 -12 32 -10 11 -15 26 -12 34 4 9 -4 23 -19
35 -16 13 -21 22 -13 26 8 6 7 10 -2 16 -11 7 -10 9 4 9 10 0 17 -8 17 -20z
m2871 0 c8 -19 0 -42 -12 -34 -5 3 -7 10 -4 15 4 5 -5 13 -19 19 -34 13 -33
21 2 18 15 -2 30 -10 33 -18z m499 6 c0 -3 -4 -8 -10 -11 -5 -3 -10 -1 -10 4
0 6 5 11 10 11 6 0 10 -2 10 -4z m-3190 -17 c0 -6 -5 -7 -11 -4 -7 5 -8 -5 -4
-29 5 -24 3 -36 -4 -36 -6 0 -11 11 -11 25 0 15 -6 25 -14 25 -8 0 -18 5 -22
12 -5 8 -2 9 9 5 10 -3 17 -3 17 1 0 4 9 8 20 9 11 1 20 -3 20 -8z m-2660 -9
c0 -5 -2 -10 -4 -10 -3 0 -8 5 -11 10 -3 6 -1 10 4 10 6 0 11 -4 11 -10z
m2690 -47 c-11 -17 -11 -17 -6 0 3 10 7 26 7 35 1 15 2 15 6 0 2 -10 -1 -25
-7 -35z m-2350 27 c0 -5 -4 -10 -10 -10 -5 0 -10 5 -10 10 0 6 5 10 10 10 6 0
10 -4 10 -10z m2430 -23 c0 -5 -4 -5 -10 -2 -5 3 -10 14 -10 23 0 15 2 15 10
2 5 -8 10 -19 10 -23z m100 17 c0 -8 -4 -12 -10 -9 -5 3 -10 10 -10 16 0 5 5
9 10 9 6 0 10 -7 10 -16z m-2820 2 c0 -3 -4 -8 -10 -11 -5 -3 -10 -1 -10 4 0
6 5 11 10 11 6 0 10 -2 10 -4z m2315 -6 c-27 -12 -35 -12 -35 0 0 6 12 10 28
9 24 0 25 -1 7 -9z m362 -12 c-3 -8 -6 -5 -6 6 -1 11 2 17 5 13 3 -3 4 -12 1
-19z m-2507 2 c0 -5 -2 -10 -4 -10 -3 0 -8 5 -11 10 -3 6 -1 10 4 10 6 0 11
-4 11 -10z m2411 -30 c13 -9 20 -88 9 -95 -6 -4 -10 5 -10 20 0 14 -4 24 -8
21 -5 -3 -9 16 -9 42 0 26 3 40 5 32 3 -8 9 -17 13 -20z m199 14 c0 -8 -4 -12
-10 -9 -5 3 -10 10 -10 16 0 5 5 9 10 9 6 0 10 -7 10 -16z m-690 -4 c0 -5 -5
-10 -11 -10 -5 0 -7 5 -4 10 3 6 8 10 11 10 2 0 4 -4 4 -10z m160 -10 c0 -5
-9 -10 -20 -10 -11 0 -20 5 -20 10 0 6 9 10 20 10 11 0 20 -4 20 -10z m-2131
-26 c-13 -16 -39 -19 -39 -3 0 5 5 7 10 4 6 -3 13 1 16 9 3 9 10 13 16 10 5
-3 4 -11 -3 -20z m46 16 c3 -5 1 -10 -4 -10 -6 0 -11 5 -11 10 0 6 2 10 4 10
3 0 8 -4 11 -10z m2455 0 c0 -5 -5 -10 -11 -10 -5 0 -7 5 -4 10 3 6 8 10 11
10 2 0 4 -4 4 -10z m117 -12 c-3 -8 -6 -5 -6 6 -1 11 2 17 5 13 3 -3 4 -12 1
-19z m-2837 -23 c0 -5 -5 -3 -10 5 -5 8 -10 20 -10 25 0 6 5 3 10 -5 5 -8 10
-19 10 -25z m2284 20 c-6 -16 -24 -21 -24 -7 0 11 11 22 21 22 5 0 6 -7 3 -15z
m351 -25 c-4 -11 -12 -19 -18 -17 -16 5 -21 28 -5 25 8 -2 12 4 10 17 -3 15
-1 17 8 9 7 -7 9 -21 5 -34z m1497 18 c-7 -7 -12 -8 -12 -2 0 14 12 26 19 19
2 -3 -1 -11 -7 -17z m-4372 -29 c0 -5 -4 -9 -10 -9 -5 0 -10 7 -10 16 0 8 5
12 10 9 6 -3 10 -10 10 -16z m2980 7 c0 -3 -4 -8 -10 -11 -5 -3 -10 -1 -10 4
0 6 5 11 10 11 6 0 10 -2 10 -4z m-2930 -10 c0 -3 -4 -8 -10 -11 -5 -3 -10 -1
-10 4 0 6 5 11 10 11 6 0 10 -2 10 -4z m357 -2 c-3 -3 -12 -4 -19 -1 -8 3 -5
6 6 6 11 1 17 -2 13 -5z m2090 -11 c2 -5 -9 -8 -27 -5 -16 2 -30 8 -30 13 0
13 53 5 57 -8z m2725 -42 c-9 -13 -18 -19 -20 -12 -2 6 -8 9 -13 5 -5 -3 -9
-1 -9 5 0 5 9 13 20 16 12 4 20 16 21 28 0 21 1 21 8 2 5 -13 3 -29 -7 -44z
m-2322 34 c0 -9 -7 -27 -16 -40 -12 -19 -14 -28 -5 -39 9 -10 3 -21 -24 -50
-19 -21 -35 -42 -35 -47 0 -5 -4 -9 -10 -9 -16 0 -12 46 5 60 8 7 15 18 15 25
0 7 7 18 15 25 11 9 13 16 5 24 -15 15 -12 36 5 36 9 0 18 7 21 15 8 20 24 19
24 0z m-2910 -5 c0 -5 -4 -10 -10 -10 -5 0 -10 5 -10 10 0 6 5 10 10 10 6 0
10 -4 10 -10z m5436 -9 c27 5 43 -4 49 -28 14 -56 16 -81 4 -88 -8 -5 -9 -1
-4 14 4 14 2 21 -6 21 -7 0 -9 -3 -6 -6 3 -4 0 -16 -8 -28 -8 -11 -15 -25 -15
-31 0 -5 5 -3 11 5 9 13 10 13 6 0 -2 -8 -11 -16 -20 -18 -19 -4 -50 50 -41
72 3 8 1 24 -5 35 -7 13 -8 22 -1 26 5 3 10 16 10 28 0 15 3 18 9 9 4 -7 12
-12 17 -11z m-5396 0 c0 -12 -29 -35 -36 -28 -7 6 17 36 29 37 4 0 7 -4 7 -9z
m2930 -21 c0 -5 -2 -10 -4 -10 -3 0 -8 5 -11 10 -3 6 -1 10 4 10 6 0 11 -4 11
-10z m-516 -16 c3 -8 2 -12 -4 -9 -6 3 -10 10 -10 16 0 14 7 11 14 -7z m-1984
-10 c0 -2 -9 -4 -21 -4 -11 0 -18 4 -14 10 5 8 35 3 35 -6z m1950 6 c0 -5 -2
-10 -4 -10 -3 0 -8 5 -11 10 -3 6 -1 10 4 10 6 0 11 -4 11 -10z m83 -15 c-7
-21 -13 -19 -13 6 0 11 4 18 10 14 5 -3 7 -12 3 -20z m2552 4 c-2 -28 -33 -46
-48 -29 -9 10 -9 11 0 6 7 -4 17 2 23 13 9 17 8 19 -5 15 -8 -4 -15 -1 -15 5
0 6 10 11 23 11 18 0 23 -5 22 -21z m-2105 7 c0 -11 -19 -15 -25 -6 -3 5 1 10
9 10 9 0 16 -2 16 -4z m30 -6 c0 -5 -2 -10 -4 -10 -3 0 -8 5 -11 10 -3 6 -1
10 4 10 6 0 11 -4 11 -10z m-2730 -14 c0 -2 -9 -6 -20 -9 -11 -3 -18 -1 -14 4
5 9 34 13 34 5z m2000 -11 c0 -8 -4 -15 -10 -15 -5 0 -10 7 -10 15 0 8 5 15
10 15 6 0 10 -7 10 -15z m980 5 c0 -5 -4 -10 -10 -10 -5 0 -10 5 -10 10 0 6 5
10 10 10 6 0 10 -4 10 -10z m2680 6 c0 -3 -4 -8 -10 -11 -5 -3 -10 -1 -10 4 0
6 5 11 10 11 6 0 10 -2 10 -4z m-5520 -21 c-7 -8 -17 -15 -22 -15 -11 0 14 29
26 30 5 0 3 -7 -4 -15z m70 -5 c0 -5 -4 -10 -10 -10 -5 0 -10 5 -10 10 0 6 5
10 10 10 6 0 10 -4 10 -10z m44 4 c25 -10 19 -22 -9 -16 -14 2 -22 8 -19 13 6
11 8 11 28 3z m1696 -8 c0 -3 -4 -8 -10 -11 -5 -3 -10 -1 -10 4 0 6 5 11 10
11 6 0 10 -2 10 -4z m174 -22 c9 -23 7 -34 -4 -34 -5 0 -10 5 -10 11 0 7 -8
18 -17 25 -17 12 -17 13 3 14 12 0 25 -7 28 -16z m-2084 2 c0 -11 -19 -15 -25
-6 -3 5 1 10 9 10 9 0 16 -2 16 -4z m1870 -12 c0 -8 -4 -12 -10 -9 -5 3 -10
10 -10 16 0 5 5 9 10 9 6 0 10 -7 10 -16z m-1960 -14 c0 -5 -4 -10 -10 -10 -5
0 -10 5 -10 10 0 6 5 10 10 10 6 0 10 -4 10 -10z m5660 6 c0 -3 -4 -8 -10 -11
-5 -3 -10 -1 -10 4 0 6 5 11 10 11 6 0 10 -2 10 -4z m-2984 -20 c3 -9 -10 -29
-32 -50 -33 -31 -40 -34 -52 -22 -8 8 -11 19 -8 25 11 17 26 13 20 -4 -4 -8
-1 -15 5 -15 6 0 11 6 11 14 0 7 9 16 21 19 16 4 19 11 14 26 -7 24 12 30 21
7z m-2571 -6 c-27 -12 -35 -12 -35 0 0 6 12 10 28 9 24 0 25 -1 7 -9z m375
-20 c0 -5 -5 -10 -11 -10 -5 0 -7 5 -4 10 3 6 8 10 11 10 2 0 4 -4 4 -10z
m2240 -10 c0 -19 -11 -26 -23 -14 -8 8 3 34 14 34 5 0 9 -9 9 -20z m-805 0
c-3 -5 -13 -10 -21 -10 -8 0 -14 5 -14 10 0 6 9 10 21 10 11 0 17 -4 14 -10z
m-145 -51 c0 -5 5 -7 12 -3 7 4 8 3 4 -4 -4 -6 -13 -9 -21 -5 -17 6 -20 23 -5
23 6 0 10 -5 10 -11z m124 -14 c-4 -8 -10 -15 -15 -15 -5 0 -9 7 -9 15 0 8 7
15 15 15 9 0 12 -6 9 -15z m670 -28 c-3 -9 -11 -17 -16 -17 -6 0 -7 7 -4 16 3
9 6 21 6 27 0 8 3 8 10 1 6 -6 8 -18 4 -27z m196 13 c0 -5 -5 -10 -11 -10 -5
0 -7 5 -4 10 3 6 8 10 11 10 2 0 4 -4 4 -10z m-166 -24 c-3 -9 -10 -16 -15
-16 -6 0 -5 9 1 21 13 24 24 20 14 -5z m-204 4 c0 -5 -4 -10 -10 -10 -5 0 -10
5 -10 10 0 6 5 10 10 10 6 0 10 -4 10 -10z m-67 -20 c-3 -12 -8 -19 -11 -16
-5 6 5 36 12 36 2 0 2 -9 -1 -20z m101 -6 c23 -9 8 -32 -20 -29 -32 3 -42 14
-24 25 18 11 23 12 44 4z m2886 -4 c0 -5 -2 -10 -4 -10 -3 0 -8 5 -11 10 -3 6
-1 10 4 10 6 0 11 -4 11 -10z m-3476 -21 c11 9 16 10 16 2 0 -6 -5 -11 -11
-11 -5 0 -8 -4 -4 -9 3 -5 1 -12 -5 -16 -6 -3 -13 1 -16 9 -3 9 -15 16 -25 16
-21 0 -26 16 -6 23 6 2 17 -3 23 -12 10 -13 14 -13 28 -2z m46 12 c0 -6 -4
-13 -10 -16 -5 -3 -10 1 -10 9 0 9 5 16 10 16 6 0 10 -4 10 -9z m719 -10 c11
-7 10 -11 -5 -20 -17 -11 -17 -11 5 -5 17 4 22 2 19 -7 -7 -20 -47 -23 -54 -5
-7 18 1 46 13 46 4 0 14 -4 22 -9z m-716 -31 c-4 -17 -8 -18 -20 -8 -13 10
-13 13 4 19 10 4 19 8 20 8 0 1 -1 -8 -4 -19z m477 16 c0 -2 -7 -7 -16 -10 -8
-3 -12 -2 -9 4 6 10 25 14 25 6z m60 -48 c0 -10 -5 -18 -10 -18 -6 0 -10 8 -8
18 2 13 -3 17 -24 15 -31 -2 -39 13 -10 19 24 5 52 -13 52 -34z m-725 22 c-3
-5 -11 -10 -16 -10 -6 0 -7 5 -4 10 3 6 11 10 16 10 6 0 7 -4 4 -10z m854 3
c0 -5 -4 -17 -9 -28 -8 -18 -9 -17 -9 8 -1 15 4 27 9 27 6 0 10 -3 9 -7z
m2731 -3 c0 -5 -4 -10 -10 -10 -5 0 -10 5 -10 10 0 6 5 10 10 10 6 0 10 -4 10
-10z m-2760 -24 c0 -11 -19 -15 -25 -6 -3 5 1 10 9 10 9 0 16 -2 16 -4z m-365
-46 c-3 -4 1 -10 7 -13 7 -2 11 -7 8 -10 -9 -10 -42 21 -35 32 3 6 11 9 16 5
5 -3 7 -9 4 -14z m155 -20 c0 -5 -4 -10 -10 -10 -5 0 -10 5 -10 10 0 6 5 10
10 10 6 0 10 -4 10 -10z m-624 -37 c-2 -16 -8 -28 -15 -27 -27 2 -31 5 -31 19
0 13 14 23 47 34 1 1 0 -11 -1 -26z m-1273 -11 c2 7 8 10 12 5 5 -4 4 -12 -2
-18 -14 -14 -53 6 -53 28 0 13 4 12 19 -6 13 -15 20 -18 24 -9z m1820 15 c12
-1 15 -6 11 -17 -3 -8 -7 -24 -8 -35 -2 -35 -93 -59 -104 -27 -2 6 8 10 25 8
31 -4 63 9 63 25 0 5 -11 14 -25 19 -33 12 -35 46 -2 35 12 -4 30 -7 40 -8z
m-1933 -7 c0 -5 -8 -10 -17 -10 -15 0 -16 2 -3 10 19 12 20 12 20 0z m55 0 c3
-5 1 -10 -4 -10 -6 0 -11 5 -11 10 0 6 2 10 4 10 3 0 8 -4 11 -10z m1750 0 c3
-5 1 -10 -4 -10 -6 0 -11 5 -11 10 0 6 2 10 4 10 3 0 8 -4 11 -10z m45 -15 c0
-7 8 -19 18 -24 15 -10 15 -10 -3 -11 -24 0 -45 18 -45 37 0 7 7 13 15 13 8 0
15 -7 15 -15z m-1876 -10 c14 -11 23 -12 33 -4 8 8 13 8 13 1 0 -5 9 -8 21 -5
21 6 69 -14 69 -29 0 -5 -11 -6 -24 -2 -18 4 -25 1 -29 -16 -3 -12 -10 -19
-16 -16 -6 4 -8 13 -4 21 3 8 1 15 -5 15 -6 0 -9 -15 -6 -32 2 -18 1 -27 -3
-19 -8 20 -40 50 -47 44 -3 -3 2 -13 11 -22 15 -15 14 -16 -13 -22 -18 -3 -33
-1 -40 8 -17 20 -37 16 -31 -7 3 -11 2 -20 -3 -20 -4 0 -10 10 -14 23 -4 15 0
27 16 40 18 15 20 20 7 28 -10 8 -8 9 9 4 16 -5 22 -2 22 9 0 20 9 20 34 1z
m2001 -25 c-3 -5 -10 -10 -16 -10 -5 0 -9 5 -9 10 0 6 7 10 16 10 8 0 12 -4 9
-10z m-2168 -42 c-3 -8 -6 -5 -6 6 -1 11 2 17 5 13 3 -3 4 -12 1 -19z m30 -10
c-3 -8 -6 -5 -6 6 -1 11 2 17 5 13 3 -3 4 -12 1 -19z m33 12 c0 -5 -4 -10 -10
-10 -5 0 -10 5 -10 10 0 6 5 10 10 10 6 0 10 -4 10 -10z m243 -7 c-3 -7 -6
-13 -8 -13 -2 0 -5 6 -8 13 -3 8 1 14 8 14 7 0 11 -6 8 -14z m1944 -9 c-3 -3
-12 -4 -19 -1 -8 3 -5 6 6 6 11 1 17 -2 13 -5z m3158 -4 c3 -5 1 -10 -4 -10
-6 0 -11 5 -11 10 0 6 2 10 4 10 3 0 8 -4 11 -10z m-3898 -29 c-4 -19 -1 -33
8 -41 8 -7 15 -18 15 -24 -1 -14 -50 45 -50 60 0 10 20 34 28 34 3 0 2 -13 -1
-29z m545 -3 c-11 -11 -32 -3 -32 12 0 4 9 6 21 3 13 -4 17 -9 11 -15z m-463
-20 c0 -28 -2 -30 -9 -13 -12 28 -12 45 0 45 6 0 10 -15 9 -32z m1763 0 c-8
-8 -9 -4 -5 13 4 13 8 18 11 10 2 -7 -1 -18 -6 -23z m2058 -3 c0 -8 -4 -15
-10 -15 -5 0 -10 7 -10 15 0 8 5 15 10 15 6 0 10 -7 10 -15z m-3583 -61 c-3
-4 -24 -7 -47 -8 -32 -2 -40 1 -40 16 0 10 5 18 10 18 6 0 10 -4 10 -8 0 -4 9
-8 21 -9 16 -2 18 1 10 11 -18 22 2 28 23 7 11 -11 17 -23 13 -27z m-263 30
c-7 -3 -10 -14 -7 -25 4 -15 2 -18 -11 -13 -18 7 -18 7 -10 28 3 9 14 16 23
15 9 0 11 -3 5 -5z m52 -32 c-10 -10 -29 15 -21 28 6 9 10 8 17 -4 6 -10 7
-20 4 -24z m3748 14 c-6 -16 -24 -23 -24 -8 0 10 22 33 27 28 2 -2 1 -11 -3
-20z m-3850 -12 c3 -8 2 -12 -4 -9 -6 3 -10 10 -10 16 0 14 7 11 14 -7z m3820
1 c3 -8 3 -22 0 -30 -8 -19 -62 -46 -70 -34 -3 5 0 9 5 9 6 0 11 7 11 15 0 18
20 20 20 3 0 -8 7 -5 15 6 11 14 12 23 4 33 -7 8 -8 13 -1 13 5 0 12 -7 16
-15z m-3444 -5 c0 -5 -5 -10 -11 -10 -5 0 -7 5 -4 10 3 6 8 10 11 10 2 0 4 -4
4 -10z m90 -20 c0 -5 -2 -10 -4 -10 -3 0 -8 5 -11 10 -3 6 -1 10 4 10 6 0 11
-4 11 -10z m-403 -42 c-3 -8 -6 -5 -6 6 -1 11 2 17 5 13 3 -3 4 -12 1 -19z
m-1727 -8 c0 -5 -14 -17 -31 -26 -31 -16 -32 -10 -6 24 11 14 37 16 37 2z
m5364 -15 c3 -8 1 -15 -4 -15 -6 0 -10 7 -10 15 0 8 2 15 4 15 2 0 6 -7 10
-15z m-3554 -4 c0 -5 -9 -7 -20 -4 -11 3 -20 7 -20 9 0 2 9 4 20 4 11 0 20 -4
20 -9z m3600 2 c0 -14 -19 -38 -25 -32 -8 8 5 39 16 39 5 0 9 -3 9 -7z m-3750
-50 c0 -26 -1 -26 -14 -7 -11 14 -11 21 -3 26 17 11 17 11 17 -19z m85 -3 c3
-5 1 -10 -4 -10 -6 0 -11 5 -11 10 0 6 2 10 4 10 3 0 8 -4 11 -10z m3525 -10
c0 -5 -4 -10 -10 -10 -5 0 -10 5 -10 10 0 6 5 10 10 10 6 0 10 -4 10 -10z
m105 -18 c-8 -8 -25 10 -19 20 4 6 9 5 15 -3 4 -7 6 -15 4 -17z m-61 3 c-4 -8
-8 -15 -10 -15 -2 0 -4 7 -4 15 0 8 4 15 10 15 5 0 7 -7 4 -15z m-3496 -15 c4
-12 2 -13 -9 -2 -15 14 -43 16 -34 2 3 -5 1 -10 -4 -10 -12 0 -14 13 -4 24 12
11 46 2 51 -14z m3427 10 c3 -6 -1 -7 -9 -4 -18 7 -21 14 -7 14 6 0 13 -4 16
-10z m-59 -36 c13 0 24 7 24 14 0 24 25 7 35 -24 5 -16 14 -32 19 -36 5 -3 -7
-6 -27 -5 -22 1 -32 4 -24 9 8 5 7 8 -5 8 -9 0 -20 -9 -23 -21 -6 -18 -12 -20
-48 -14 -43 8 -57 19 -57 45 1 12 3 12 14 -2 18 -24 25 -22 18 5 -5 19 -3 20
10 9 13 -11 17 -8 23 15 6 19 9 23 12 12 3 -11 13 -16 29 -15z m-1876 -5 c0
-6 -4 -7 -10 -4 -5 3 -10 11 -10 16 0 6 5 7 10 4 6 -3 10 -11 10 -16z m-1495
1 c3 -6 -1 -7 -9 -4 -18 7 -21 14 -7 14 6 0 13 -4 16 -10z m-10 -30 c-3 -5
-12 -10 -18 -10 -7 0 -6 4 3 10 19 12 23 12 15 0z m1808 -20 c3 -11 1 -18 -4
-14 -5 3 -9 12 -9 20 0 20 7 17 13 -6z m-253 -70 c0 -5 -2 -10 -4 -10 -3 0 -8
5 -11 10 -3 6 -1 10 4 10 6 0 11 -4 11 -10z m477 -72 c-3 -8 -6 -5 -6 6 -1 11
2 17 5 13 3 -3 4 -12 1 -19z m180 -60 c-3 -8 -6 -5 -6 6 -1 11 2 17 5 13 3 -3
4 -12 1 -19z m-1630 -50 c-3 -8 -6 -5 -6 6 -1 11 2 17 5 13 3 -3 4 -12 1 -19z
m1074 -19 c-6 -16 -10 -18 -10 -7 -1 22 12 55 16 42 2 -6 -1 -22 -6 -35z m410
8 c-10 -9 -11 -8 -5 6 3 10 9 15 12 12 3 -3 0 -11 -7 -18z m4739 -3 c0 -12
-29 -28 -38 -20 -2 3 -2 11 1 19 6 17 37 18 37 1z m-4840 -157 c0 -5 -4 -5
-10 -2 -5 3 -10 14 -10 23 0 15 2 15 10 2 5 -8 10 -19 10 -23z m47 11 c-3 -8
-6 -5 -6 6 -1 11 2 17 5 13 3 -3 4 -12 1 -19z m5122 -8 c41 -21 32 -72 -13
-84 -14 -3 -30 -15 -36 -26 -7 -13 -21 -20 -39 -20 -25 0 -29 5 -38 45 -10 45
-3 65 24 65 7 0 13 7 13 15 0 17 60 21 89 5z m-5779 -95 c0 -14 -2 -25 -4 -25
-2 0 -6 11 -8 25 -3 14 -1 25 3 25 5 0 9 -11 9 -25z m-2573 -6 c8 -8 17 -8 33
1 15 8 50 10 109 6 125 -9 131 -10 131 -23 0 -6 4 -14 9 -17 5 -4 7 3 4 14 -3
11 0 20 6 20 6 0 12 -10 12 -22 l2 -23 4 23 c4 19 9 22 31 18 15 -3 48 -8 75
-12 33 -4 47 -11 48 -23 1 -14 2 -13 6 2 6 22 18 22 42 -2 14 -14 22 -16 31
-8 10 9 14 9 17 0 6 -16 33 -17 33 -2 0 8 4 8 13 1 7 -6 25 -12 40 -14 17 -3
35 -15 46 -31 10 -15 25 -33 35 -40 9 -6 19 -29 22 -49 6 -36 6 -37 -32 -43
-22 -3 -111 -25 -199 -47 -88 -22 -185 -44 -215 -48 -30 -5 -83 -16 -117 -25
-50 -13 -70 -14 -104 -5 -23 6 -52 9 -66 6 -30 -8 -60 14 -93 72 -19 30 -47
46 -37 20 15 -42 17 -58 8 -58 -20 0 -51 40 -51 64 0 13 -6 29 -14 35 -8 6
-20 33 -27 59 l-13 47 -4 -42 c-3 -43 -3 -43 -42 -43 -33 0 -42 5 -54 28 -14
28 -20 65 -18 115 2 25 5 27 47 27 35 0 47 -4 56 -21 l11 -21 12 23 c10 20 24
26 86 35 104 15 105 15 117 3z m2830 -81 c-3 -8 -6 -5 -6 6 -1 11 2 17 5 13 3
-3 4 -12 1 -19z m-2069 -43 c20 -14 32 -25 27 -25 -6 0 -1 -7 9 -15 22 -17 21
-20 -11 -29 -20 -7 -23 -4 -23 22 0 21 -8 36 -27 51 -40 29 -19 26 25 -4z
m1843 -12 c-12 -20 -14 -14 -5 12 4 9 9 14 11 11 3 -2 0 -13 -6 -23z m486 -5
c-3 -8 -6 -5 -6 6 -1 11 2 17 5 13 3 -3 4 -12 1 -19z m520 -20 c-3 -8 -6 -5
-6 6 -1 11 2 17 5 13 3 -3 4 -12 1 -19z m-437 -258 c0 -5 -5 -10 -11 -10 -5 0
-7 5 -4 10 3 6 8 10 11 10 2 0 4 -4 4 -10z m-3374 -107 c-11 -11 -17 4 -9 23
7 18 8 18 11 1 2 -10 1 -21 -2 -24z m2765 -24 c-9 -22 -10 -22 -10 -3 -1 11 2
24 6 27 12 12 14 0 4 -24z m-324 -41 c-3 -8 -6 -5 -6 6 -1 11 2 17 5 13 3 -3
4 -12 1 -19z m715 -80 c-6 -6 -7 0 -4 19 5 21 7 23 10 9 2 -10 0 -22 -6 -28z
m-525 -280 c-3 -8 -6 -5 -6 6 -1 11 2 17 5 13 3 -3 4 -12 1 -19z m-2554 -25
c-3 -7 -6 -13 -8 -13 -2 0 -5 6 -8 13 -3 8 1 14 8 14 7 0 11 -6 8 -14z m2317
-284 c0 -5 -4 -9 -10 -9 -5 0 -10 7 -10 16 0 8 5 12 10 9 6 -3 10 -10 10 -16z
m1835 -309 c-3 -5 -12 -10 -18 -10 -7 0 -6 4 3 10 19 12 23 12 15 0z m-55 -30
c0 -5 -5 -10 -11 -10 -5 0 -7 5 -4 10 3 6 8 10 11 10 2 0 4 -4 4 -10z m-160
-120 c0 -5 -5 -10 -11 -10 -5 0 -7 5 -4 10 3 6 8 10 11 10 2 0 4 -4 4 -10z
m-2340 -470 c0 -5 -10 -10 -22 -9 -22 0 -22 1 -3 9 11 5 21 9 23 9 1 1 2 -3 2
-9z m3977 -832 c-3 -8 -6 -5 -6 6 -1 11 2 17 5 13 3 -3 4 -12 1 -19z m600
-260 c-3 -7 -5 -2 -5 12 0 14 2 19 5 13 2 -7 2 -19 0 -25z m-1167 -668 c0 -5
-5 -10 -11 -10 -5 0 -7 5 -4 10 3 6 8 10 11 10 2 0 4 -4 4 -10z m-390 -779 c0
-6 -4 -13 -10 -16 -5 -3 -10 1 -10 9 0 9 5 16 10 16 6 0 10 -4 10 -9z m-3886
-10 c3 -5 -4 -11 -17 -15 -34 -9 -39 -7 -25 9 15 16 34 19 42 6z m-27 -87 c-3
-3 -12 -4 -19 -1 -8 3 -5 6 6 6 11 1 17 -2 13 -5z m6435 -916 c-7 -7 -12 -8
-12 -2 0 14 12 26 19 19 2 -3 -1 -11 -7 -17z m-191 -159 c-6 -16 -10 -18 -10
-7 -1 22 12 55 16 42 2 -6 -1 -22 -6 -35z"/>
<path d="M6087 12553 c-3 -5 -8 -30 -12 -58 -8 -53 -17 -75 -38 -97 -39 -39
-59 -88 -37 -88 5 0 6 7 3 17 -4 10 -2 14 5 10 15 -10 61 13 67 35 4 10 10 18
15 18 7 0 18 26 24 55 1 6 6 18 10 28 12 25 -2 87 -19 87 -8 0 -16 -3 -18 -7z"/>
<path d="M6203 12433 c-16 -6 -17 -33 -2 -33 8 0 9 -13 5 -40 -4 -25 -2 -40 4
-40 5 0 9 -3 9 -7 -3 -20 2 -26 11 -13 8 12 10 11 10 -7 0 -17 5 -22 22 -20
14 1 26 -6 34 -21 19 -38 32 -48 46 -34 9 9 9 12 -1 12 -7 0 -9 5 -6 11 4 6
13 8 21 5 25 -10 15 14 -11 26 -16 7 -25 19 -25 34 0 18 -4 22 -17 18 -14 -4
-13 -1 4 14 24 22 21 32 -12 32 -11 0 -26 5 -33 12 -9 9 -13 7 -18 -5 -12 -33
-27 -17 -21 23 5 40 3 43 -20 33z"/>
<path d="M6252 12408 c6 -18 28 -21 28 -4 0 9 -7 16 -16 16 -9 0 -14 -5 -12
-12z"/>
<path d="M6136 12355 c-9 -23 -8 -25 9 -25 17 0 19 9 6 28 -7 11 -10 10 -15
-3z"/>
<path d="M6200 12282 c0 -5 10 -17 21 -28 22 -19 22 -19 10 3 -12 24 -31 39
-31 25z"/>
<path d="M6275 12250 c3 -5 8 -10 11 -10 2 0 4 5 4 10 0 6 -5 10 -11 10 -5 0
-7 -4 -4 -10z"/>
<path d="M6275 12194 c13 -19 35 -44 50 -55 14 -11 25 -26 25 -34 0 -12 29
-30 36 -22 8 8 -10 47 -22 47 -8 0 -14 4 -14 9 0 5 -11 12 -25 15 -14 4 -23
10 -21 15 7 10 -31 61 -44 61 -5 0 1 -16 15 -36z"/>
<path d="M6350 12205 c-21 -25 -1 -31 23 -7 17 18 18 22 5 22 -8 0 -21 -7 -28
-15z"/>
<path d="M6403 12208 c-14 -18 -25 -68 -15 -68 4 0 9 -10 10 -22 1 -13 4 -32
6 -43 2 -11 -5 -26 -15 -33 -11 -7 -19 -22 -19 -33 0 -13 -7 -19 -24 -19 -13
0 -27 6 -29 13 -3 6 -6 2 -6 -11 -1 -13 3 -21 8 -18 5 3 14 -8 21 -24 7 -17
15 -30 19 -30 12 1 41 27 41 37 0 6 8 13 19 16 13 3 18 13 17 33 -1 16 4 38
11 48 8 13 9 25 2 37 -6 12 -5 20 2 24 6 5 4 12 -8 21 -10 7 -13 14 -6 14 11
0 11 6 -2 48 -8 25 -18 28 -32 10z"/>
<path d="M5843 12185 c-18 -19 -16 -63 2 -81 8 -9 15 -12 15 -7 0 4 5 1 10 -7
9 -13 10 -13 10 1 0 8 -8 24 -19 35 -16 18 -17 23 -5 39 24 33 12 49 -13 20z"/>
<path d="M6180 11765 c0 -9 -4 -14 -9 -11 -5 4 -7 -3 -4 -14 3 -11 9 -18 13
-15 12 8 19 44 9 51 -5 3 -9 -2 -9 -11z"/>
<path d="M6205 11720 c3 -5 8 -10 11 -10 2 0 4 5 4 10 0 6 -5 10 -11 10 -5 0
-7 -4 -4 -10z"/>
<path d="M8425 10120 c3 -5 8 -10 11 -10 2 0 4 5 4 10 0 6 -5 10 -11 10 -5 0
-7 -4 -4 -10z"/>
<path d="M8280 10105 c0 -9 6 -12 15 -9 8 4 12 10 9 15 -8 14 -24 10 -24 -6z"/>
<path d="M7685 9629 c-11 -17 1 -21 15 -4 8 9 8 15 2 15 -6 0 -14 -5 -17 -11z"/>
<path d="M7796 9536 c3 -9 11 -16 16 -16 13 0 5 23 -10 28 -7 2 -10 -2 -6 -12z"/>
<path d="M10935 8392 c-5 -4 -16 -17 -23 -29 -10 -19 -10 -23 3 -23 8 0 15 9
15 20 0 10 8 24 18 29 9 6 13 10 7 11 -5 0 -14 -4 -20 -8z"/>
<path d="M10860 8340 c-8 -5 -11 -12 -7 -16 4 -4 15 0 24 9 18 18 8 23 -17 7z"/>
<path d="M10858 8303 c7 -3 16 -2 19 1 4 3 -2 6 -13 5 -11 0 -14 -3 -6 -6z"/>
<path d="M10841 8274 c0 -11 3 -14 6 -6 3 7 2 16 -1 19 -3 4 -6 -2 -5 -13z"/>
<path d="M10992 8248 c6 -18 25 -20 31 -3 5 10 0 15 -14 15 -12 0 -19 -5 -17
-12z"/>
<path d="M10725 8240 c-4 -6 -3 -25 0 -42 7 -30 8 -31 22 -13 12 17 12 21 -4
33 -16 11 -16 14 -3 22 9 6 10 10 3 10 -6 0 -15 -5 -18 -10z"/>
<path d="M10756 8165 c-3 -8 -1 -15 4 -15 13 0 22 18 11 24 -5 3 -11 -1 -15
-9z"/>
<path d="M10740 8124 c0 -8 5 -12 10 -9 6 4 8 11 5 16 -9 14 -15 11 -15 -7z"/>
<path d="M10810 8030 c0 -5 5 -10 10 -10 6 0 10 5 10 10 0 6 -4 10 -10 10 -5
0 -10 -4 -10 -10z"/>
<path d="M7727 7936 c-7 -19 11 -32 24 -19 6 6 5 14 -4 22 -12 9 -16 8 -20 -3z"/>
<path d="M5191 7791 c-8 -5 -10 -14 -6 -21 6 -9 10 -8 17 4 12 21 7 28 -11 17z"/>
<path d="M7810 7775 c0 -9 5 -15 11 -13 6 2 11 8 11 13 0 5 -5 11 -11 13 -6 2
-11 -4 -11 -13z"/>
<path d="M7725 7710 c3 -5 8 -10 11 -10 2 0 4 5 4 10 0 6 -5 10 -11 10 -5 0
-7 -4 -4 -10z"/>
<path d="M7640 7580 c0 -5 7 -10 15 -10 8 0 15 5 15 10 0 6 -7 10 -15 10 -8 0
-15 -4 -15 -10z"/>
<path d="M7582 7562 c-27 -4 -52 -42 -27 -42 8 0 15 4 15 8 0 5 12 13 28 18
30 11 20 22 -16 16z"/>
<path d="M7617 7513 c-14 -4 -16 -8 -6 -19 9 -11 15 -12 25 -3 15 12 19 30 7
28 -5 -1 -16 -3 -26 -6z"/>
<path d="M7575 7470 c3 -5 8 -10 11 -10 2 0 4 5 4 10 0 6 -5 10 -11 10 -5 0
-7 -4 -4 -10z"/>
<path d="M7540 7461 c0 -5 5 -13 10 -16 6 -3 10 -2 10 4 0 5 -4 13 -10 16 -5
3 -10 2 -10 -4z"/>
<path d="M7618 7443 c7 -3 16 -2 19 1 4 3 -2 6 -13 5 -11 0 -14 -3 -6 -6z"/>
<path d="M7498 7419 c-7 -17 14 -40 46 -52 14 -6 17 -3 12 9 -3 8 -6 18 -6 20
0 2 -9 4 -19 4 -11 0 -21 8 -23 18 -3 15 -4 15 -10 1z"/>
<path d="M7638 7373 c-24 -6 -23 -19 2 -26 15 -4 20 0 20 14 0 10 -1 18 -2 18
-2 -1 -11 -3 -20 -6z"/>
<path d="M7530 7323 c0 -12 -6 -23 -12 -26 -7 -2 -10 -7 -7 -11 12 -12 38 29
29 44 -8 12 -10 11 -10 -7z"/>
<path d="M7590 7310 c-12 -8 -10 -10 8 -10 13 0 20 4 17 10 -7 12 -6 12 -25 0z"/>
<path d="M7375 7300 c3 -5 8 -10 11 -10 2 0 4 5 4 10 0 6 -5 10 -11 10 -5 0
-7 -4 -4 -10z"/>
<path d="M7430 7297 c0 -18 28 -42 37 -33 4 3 -3 15 -15 26 -16 15 -22 17 -22
7z"/>
<path d="M7116 7263 c1 -16 3 -32 3 -38 1 -5 6 -3 11 5 14 22 12 60 -3 60 -8
0 -12 -11 -11 -27z"/>
<path d="M7380 7272 c0 -12 34 -42 48 -42 7 0 12 5 12 10 0 6 -6 10 -14 10 -8
0 -16 7 -20 15 -6 16 -26 21 -26 7z"/>
<path d="M7590 7270 c-23 -7 -23 -8 -3 -9 12 -1 25 4 28 9 3 6 5 10 3 9 -2 -1
-14 -5 -28 -9z"/>
<path d="M7360 7240 c0 -5 5 -10 11 -10 5 0 7 5 4 10 -3 6 -8 10 -11 10 -2 0
-4 -4 -4 -10z"/>
<path d="M7155 7210 c-7 -22 19 -57 30 -40 3 6 -1 13 -10 16 -10 4 -13 13 -10
25 4 11 4 19 1 19 -2 0 -8 -9 -11 -20z"/>
<path d="M7306 7195 c-3 -8 -12 -12 -20 -9 -10 4 -14 -2 -12 -20 1 -27 16 -37
16 -12 0 11 5 12 25 3 17 -8 24 -18 21 -29 -5 -20 9 -34 19 -19 3 6 12 8 20 4
18 -6 18 1 0 47 -8 20 -14 27 -14 17 -1 -14 -6 -17 -23 -11 -30 8 -36 16 -20
21 14 5 17 23 3 23 -5 0 -11 -7 -15 -15z"/>
<path d="M7240 7176 c0 -8 5 -18 10 -21 6 -3 10 1 10 9 0 8 -4 18 -10 21 -5 3
-10 -1 -10 -9z"/>
<path d="M7066 7099 c12 -13 20 -16 22 -9 3 7 -2 16 -9 21 -25 16 -32 9 -13
-12z"/>
<path d="M7122 7108 c-7 -7 -12 -16 -12 -22 0 -5 3 -6 6 -3 4 3 15 2 25 -4 20
-10 24 -3 13 25 -7 19 -16 20 -32 4z"/>
<path d="M7266 7112 c6 -4 13 -15 17 -24 3 -10 12 -18 19 -18 9 0 9 3 2 8 -6
4 -13 15 -17 25 -3 9 -12 17 -19 17 -9 0 -9 -3 -2 -8z"/>
<path d="M7030 7076 c0 -8 6 -16 14 -19 8 -3 16 -20 18 -38 2 -18 9 -34 16
-37 9 -3 10 2 2 22 -5 15 -9 30 -8 34 3 10 -25 52 -34 52 -5 0 -8 -6 -8 -14z"/>
<path d="M7103 7043 c-15 -5 -17 -23 -4 -23 5 0 11 7 15 15 3 8 4 15 3 14 -1
0 -8 -3 -14 -6z"/>
<path d="M6972 7021 c-4 -12 -12 -23 -17 -24 -5 -1 -9 -12 -10 -24 -1 -20 3
-22 30 -18 29 5 29 5 -10 -18 -22 -12 -41 -31 -43 -41 -4 -17 -3 -17 16 1 56
50 67 54 58 20 -4 -17 1 -30 19 -47 14 -13 28 -20 32 -17 3 4 13 1 21 -5 11
-10 13 -8 10 12 -3 22 -38 39 -38 19 0 -6 -5 -7 -10 -4 -6 4 -8 11 -5 16 3 5
-1 6 -9 3 -21 -8 -20 10 1 32 16 16 16 18 -9 38 -21 17 -24 24 -15 38 9 13 9
20 0 29 -10 10 -14 7 -21 -10z"/>
<path d="M7017 7013 c-3 -5 1 -19 9 -33 l13 -25 1 27 c0 27 -14 45 -23 31z"/>
<path d="M7061 6930 c0 -29 1 -32 10 -17 7 11 7 23 0 35 -9 14 -10 11 -10 -18z"/>
<path d="M7140 6930 c0 -13 18 -22 24 -11 3 5 -1 11 -9 15 -8 3 -15 1 -15 -4z"/>
<path d="M6955 6850 c3 -5 14 -10 23 -10 15 0 15 2 2 10 -20 13 -33 13 -25 0z"/>
<path d="M6900 6791 c0 -5 5 -13 10 -16 6 -3 10 -2 10 4 0 5 -4 13 -10 16 -5
3 -10 2 -10 -4z"/>
<path d="M10330 7370 c0 -5 5 -10 11 -10 5 0 7 5 4 10 -3 6 -8 10 -11 10 -2 0
-4 -4 -4 -10z"/>
<path d="M5351 6911 c-7 -5 -11 -15 -9 -22 3 -10 8 -7 17 9 13 24 12 26 -8 13z"/>
<path d="M6207 5824 c-4 -4 -7 -19 -7 -33 0 -18 3 -22 11 -14 6 6 18 9 25 6
11 -4 12 0 6 18 -9 24 -24 34 -35 23z"/>
<path d="M5914 5796 c-4 -11 -2 -21 7 -27 31 -19 38 -5 15 27 -14 18 -15 18
-22 0z"/>
<path d="M5655 5739 c-4 -6 -5 -13 -2 -16 7 -7 27 6 27 18 0 12 -17 12 -25 -2z"/>
<path d="M6115 5720 c3 -5 10 -10 16 -10 5 0 9 5 9 10 0 6 -7 10 -16 10 -8 0
-12 -4 -9 -10z"/>
</g>
</svg>
